{
	"asset":{
		"version":"2.0",
		"generator":"Created using the official Cinema 4D glTF Exporter 1.000x290161"
	},
	"scenes":[{
		"nodes":[0]
	}],
	"nodes":[{
		"name":"Cylinder.11",
		"translation":[63.8876953125,
		146.33570861816407,
		-125.3530502319336],
		"rotation":[0.0,
		0.0,
		0.0,
		-1.0],
		"scale":[1.0,
		1.0,
		1.0],
		"mesh":0
	}],
	"meshes":[{
		"primitives":[{
			"attributes":{
				"POSITION":1,
				"NORMAL":2,
				"TEXCOORD_0":3
			},
			"indices":0,
			"material":0
		}]
	}],
	"accessors":[{
		"bufferView":0,
		"type":"SCALAR",
		"componentType":5123,
		"count":41466,
		"byteOffset":0,
		"min":[0],
		"max":[11632]
	},
	{
		"bufferView":1,
		"type":"VEC3",
		"componentType":5126,
		"count":11633,
		"byteOffset":0,
		"min":[-480.27679443359377,
		-114.10211181640625,
		-278.8072814941406],
		"max":[754.895751953125,
		215.39634704589845,
		270.45831298828127]
	},
	{
		"bufferView":1,
		"type":"VEC3",
		"componentType":5126,
		"count":11633,
		"byteOffset":12,
		"min":[-1.0,
		-1.0,
		-1.0],
		"max":[1.0,
		1.0,
		1.0]
	},
	{
		"bufferView":1,
		"type":"VEC2",
		"componentType":5126,
		"count":11633,
		"byteOffset":24,
		"min":[-0.5763976573944092,
		-1.0443038940429688],
		"max":[1.605708122253418,
		2.0301437377929689]
	}],
	"bufferViews":[{
		"buffer":0,
		"byteOffset":0,
		"byteLength":82932,
		"target":34963
	},
	{
		"buffer":0,
		"byteOffset":82932,
		"byteLength":372256,
		"target":34962,
		"byteStride":32
	}],
	"buffers":[{
		"uri":"data:application/octet-stream;base64,",
		"byteLength":455188
	}],
	"materials":[{
		"pbrMetallicRoughness":{
			"baseColorFactor":[0.9500000000000001,
			0.9500000000000001,
			0.9500000000000001,
			1.0],
			"metallicFactor":0.0,
			"roughnessFactor":0.5
		},
		"emissiveFactor":[0.0,
		0.0,
		0.0],
		"alphaMode":"OPAQUE",
		"doubleSided":false,
		"name":"gray"
	}]
}