{
	"asset":{
		"version":"2.0",
		"generator":"Created using the official Cinema 4D glTF Exporter 1.000x290161"
	},
	"scenes":[{
		"nodes":[0]
	}],
	"nodes":[{
		"name":"Cube",
		"translation":[-3.2337712575666564e-15,
		142.16534423828126,
		-780.0],
		"rotation":[0.01734737865626812,
		0.0,
		0.0,
		-0.9998494982719421],
		"scale":[1.0,
		1.0,
		1.0],
		"mesh":0
	}],
	"meshes":[{
		"primitives":[{
			"attributes":{
				"POSITION":1,
				"NORMAL":2,
				"TEXCOORD_0":3
			},
			"indices":0,
			"material":0
		}]
	}],
	"accessors":[{
		"bufferView":0,
		"type":"SCALAR",
		"componentType":5123,
		"count":36186,
		"byteOffset":0,
		"min":[0],
		"max":[10323]
	},
	{
		"bufferView":1,
		"type":"VEC3",
		"componentType":5126,
		"count":10324,
		"byteOffset":0,
		"min":[-45.0,
		-111.5549545288086,
		911.824951171875],
		"max":[45.0,
		83.4450454711914,
		921.824951171875]
	},
	{
		"bufferView":1,
		"type":"VEC3",
		"componentType":5126,
		"count":10324,
		"byteOffset":12,
		"min":[-1.0,
		-1.0,
		-1.0],
		"max":[1.0,
		1.0,
		1.0]
	},
	{
		"bufferView":1,
		"type":"VEC2",
		"componentType":5126,
		"count":10324,
		"byteOffset":24,
		"min":[-0.5763976573944092,
		-1.0443038940429688],
		"max":[1.605708122253418,
		2.0301437377929689]
	}],
	"bufferViews":[{
		"buffer":0,
		"byteOffset":0,
		"byteLength":72372,
		"target":34963
	},
	{
		"buffer":0,
		"byteOffset":72372,
		"byteLength":330368,
		"target":34962,
		"byteStride":32
	}],
	"buffers":[{
		"uri":"data:application/octet-stream;base64,",
		"byteLength":402740
	}],
	"materials":[{
		"pbrMetallicRoughness":{
			"baseColorFactor":[0.8,
			0.8,
			0.8,
			1.0],
			"metallicFactor":0.0,
			"roughnessFactor":0.5
		},
		"emissiveFactor":[0.0,
		0.0,
		0.0],
		"alphaMode":"OPAQUE",
		"doubleSided":false,
		"name":"Mat"
	}]
}