<svg xmlns="http://www.w3.org/2000/svg" width="300" height="90" viewBox="0 0 300 90">
    <g fill="none" fill-rule="evenodd">
        <g fill="#FFF" fill-rule="nonzero">
            <g>
                <g opacity=".4">
                    <path d="M30.545.107l-13.06 22.548H13.7L.053.107H6.29l9.542 16.365L24.841.107h5.704zm30.758 22.548H36.835V.107h24.201v3.998H42.38v4.904h10.874V12.9H42.38v5.544h18.924v4.211zm33.796-5.33c0 2.132-.426 3.553-1.28 4.264-.852.711-2.38 1.066-4.584 1.066H74.576c-2.417 0-4.007-.4-4.77-1.2-.765-.799-1.147-2.389-1.147-4.77l4.904-.906v2.665h16.579v-5.17H75.536c-2.204 0-3.714-.338-4.532-1.013-.924-.747-1.386-2.186-1.386-4.318V5.437c0-2.132.462-3.571 1.386-4.318.818-.675 2.328-1.012 4.532-1.012h13.38c2.274 0 3.829.355 4.664 1.066.835.71 1.253 2.168 1.253 4.37l-4.745 1.014v-2.4H74.576v4.745h14.66c2.203 0 3.73.347 4.584 1.04.853.693 1.28 2.123 1.28 4.29v3.093zm33.85-13.167H118.02v18.497h-5.49V4.158h-10.875V.107h27.293v4.05zm32.517 0h-10.928v18.497h-5.49V4.158h-10.875V.107h27.293v4.05zm35.715 13.167c0 2.132-.426 3.553-1.28 4.264-.852.711-2.38 1.066-4.583 1.066h-17.432c-2.203 0-3.731-.346-4.584-1.04-.853-.692-1.28-2.123-1.28-4.29V5.437c0-2.168.427-3.598 1.28-4.29.853-.694 2.38-1.04 4.584-1.04h17.432c2.203 0 3.731.346 4.584 1.04.853.692 1.28 2.122 1.28 4.29v11.888zm-5.49 1.012V4.265h-18.178v14.072h18.178zm43.605-1.012c0 2.132-.427 3.553-1.28 4.264-.853.711-2.38 1.066-4.584 1.066H212c-2.204 0-3.732-.346-4.585-1.04-.853-.692-1.28-2.123-1.28-4.29V5.437c0-2.168.427-3.598 1.28-4.29.853-.694 2.381-1.04 4.585-1.04h17.43c2.204 0 3.732.346 4.585 1.04.853.692 1.28 2.122 1.28 4.29v11.888zm-5.491 1.012V4.265h-18.178v14.072h18.178z" transform="translate(32 34)"/>
                </g>
                <g>
                    <path d="M30.545.107l-13.06 22.548H13.7L.053.107H6.29l9.542 16.365L24.841.107h5.704zm30.758 22.548H36.835V.107h24.201v3.998H42.38v4.904h10.874V12.9H42.38v5.544h18.924v4.211zm33.796-5.33c0 2.132-.426 3.553-1.28 4.264-.852.711-2.38 1.066-4.584 1.066H74.576c-2.417 0-4.007-.4-4.77-1.2-.765-.799-1.147-2.389-1.147-4.77l4.904-.906v2.665h16.579v-5.17H75.536c-2.204 0-3.714-.338-4.532-1.013-.924-.747-1.386-2.186-1.386-4.318V5.437c0-2.132.462-3.571 1.386-4.318.818-.675 2.328-1.012 4.532-1.012h13.38c2.274 0 3.829.355 4.664 1.066.835.71 1.253 2.168 1.253 4.37l-4.745 1.014v-2.4H74.576v4.745h14.66c2.203 0 3.73.347 4.584 1.04.853.693 1.28 2.123 1.28 4.29v3.093zm33.85-13.167H118.02v18.497h-5.49V4.158h-10.875V.107h27.293v4.05zm32.517 0h-10.928v18.497h-5.49V4.158h-10.875V.107h27.293v4.05zm35.715 13.167c0 2.132-.426 3.553-1.28 4.264-.852.711-2.38 1.066-4.583 1.066h-17.432c-2.203 0-3.731-.346-4.584-1.04-.853-.692-1.28-2.123-1.28-4.29V5.437c0-2.168.427-3.598 1.28-4.29.853-.694 2.38-1.04 4.584-1.04h17.432c2.203 0 3.731.346 4.584 1.04.853.692 1.28 2.122 1.28 4.29v11.888zm-5.49 1.012V4.265h-18.178v14.072h18.178zm43.605-1.012c0 2.132-.427 3.553-1.28 4.264-.853.711-2.38 1.066-4.584 1.066H212c-2.204 0-3.732-.346-4.585-1.04-.853-.692-1.28-2.123-1.28-4.29V5.437c0-2.168.427-3.598 1.28-4.29.853-.694 2.381-1.04 4.585-1.04h17.43c2.204 0 3.732.346 4.585 1.04.853.692 1.28 2.122 1.28 4.29v11.888zm-5.491 1.012V4.265h-18.178v14.072h18.178z" transform="translate(32 34)"/>
                </g>
            </g>
        </g>
    </g>
</svg>
