<svg xmlns="http://www.w3.org/2000/svg" width="300" height="90" viewBox="0 0 300 90">
    <g fill="none" fill-rule="evenodd">
        <g fill="#FFF" fill-rule="nonzero">
            <g>
                <path d="M33.698 1.11c.833 0 1.632.132 2.398.398.767.263 1.444.645 2.035 1.138.591.496 1.061 1.077 1.41 1.748.346.672.519 1.429.519 2.276v32.42c0 1.024-.364 1.914-1.095 2.676-.73.758-1.615 1.138-2.66 1.138-1.042 0-1.93-.38-2.659-1.138-.732-.76-1.095-1.652-1.095-2.676V11.544L24.985 39.09c-.312 1.163-.912 2.091-1.798 2.782-.887.688-1.94 1.032-3.157 1.032s-2.26-.344-3.128-1.035c-.87-.688-1.461-1.613-1.775-2.78L7.566 11.545V39.09c0 1.024-.373 1.914-1.12 2.676-.75.758-1.644 1.138-2.688 1.138-1.009 0-1.886-.38-2.633-1.138-.75-.76-1.123-1.652-1.123-2.676V6.673c0-.85.183-1.607.55-2.277.363-.673.84-1.254 1.433-1.75.591-.493 1.269-.875 2.035-1.138.764-.266 1.546-.398 2.347-.398 1.565 0 2.893.423 3.99 1.27 1.096.848 1.852 2.014 2.27 3.498l7.4 26.696 7.408-26.696c.418-1.484 1.175-2.65 2.27-3.498 1.095-.847 2.423-1.27 3.99-1.27h.003zm23.45 10.27c2.329 0 4.339.448 6.025 1.348 1.686.9 3.078 2.024 4.174 3.364 1.095 1.343 1.904 2.79 2.423 4.343.524 1.556.784 2.985.784 4.293 0 1.236-.228 2.26-.678 3.073-.452.81-1.113 1.216-1.983 1.216h-16.69c-.385 0-.672.134-.862.398-.19.265-.287.607-.287 1.032 0 .53.156 1.138.47 1.828.311.688.78 1.351 1.409 1.986.626.637 1.4 1.166 2.322 1.59.92.423 1.988.633 3.207.633.729 0 1.372-.076 1.928-.235.556-.16 1.078-.397 1.565-.716.487-.319.965-.733 1.434-1.244.47-.511 1.002-1.12 1.593-1.83.519-.634 1.112-.953 1.772-.953.42 0 .836.107 1.251.32.42.212.784.495 1.096.846.314.355.576.752.784 1.192.207.442.314.893.314 1.35 0 .46-.235 1.106-.705 1.935-.47.83-1.192 1.66-2.166 2.49-.974.83-2.19 1.555-3.65 2.172-1.46.617-3.201.926-5.216.926-2.295 0-4.35-.425-6.157-1.27-1.807-.85-3.33-1.988-4.564-3.417-1.234-1.432-2.174-3.091-2.817-4.98-.642-1.89-.964-3.893-.964-6.013 0-2.117.287-4.123.86-6.012.574-1.887 1.452-3.55 2.634-4.978 1.182-1.432 2.66-2.57 4.436-3.415 1.772-.85 3.857-1.275 6.258-1.275v.003zM96.53.253c1.043 0 1.938.37 2.688 1.113.746.741 1.12 1.641 1.12 2.699v34.167c0 1.024-.374 1.915-1.12 2.676-.75.759-1.645 1.138-2.688 1.138-1.043 0-1.929-.379-2.66-1.138-.73-.759-1.096-1.652-1.096-2.676-.314.354-.66.751-1.043 1.191-.383.443-.895.858-1.538 1.245-.643.39-1.459.716-2.453.981-.989.263-2.235.397-3.728.397-1.741 0-3.306-.371-4.696-1.113-1.392-.74-2.581-1.79-3.573-3.151-.989-1.358-1.755-2.975-2.294-4.847-.542-1.871-.809-3.938-.809-6.197 0-2.26.267-4.335.809-6.224.539-1.89 1.303-3.516 2.294-4.875.99-1.358 2.181-2.41 3.573-3.151 1.39-.741 2.955-1.113 4.696-1.113 1.285 0 2.415.195 3.39.582.974.392 1.807.822 2.504 1.3.692.475 1.251.91 1.669 1.297.418.39.73.582.94.582.173 0 .26-.228.26-.688V4.068c0-1.058.365-1.958 1.095-2.702.729-.741 1.617-1.113 2.66-1.113zm11.633 11.812c1.041 0 1.936.38 2.685 1.139.747.758 1.123 1.669 1.123 2.726v22.302c0 1.06-.376 1.96-1.123 2.701-.749.742-1.644 1.113-2.685 1.113-1.046 0-1.93-.379-2.66-1.138-.732-.759-1.098-1.652-1.098-2.676v-22.3c0-1.057.376-1.967 1.122-2.726.747-.759 1.625-1.138 2.636-1.138v-.003zM86.462 17.63c-2.19 0-3.904.81-5.138 2.436-1.236 1.624-1.852 3.85-1.852 6.675 0 2.79.618 4.996 1.854 6.62 1.232 1.626 2.945 2.438 5.136 2.438 2.19 0 3.904-.812 5.138-2.439 1.236-1.623 1.854-3.83 1.854-6.62 0-2.824-.618-5.05-1.854-6.677-1.237-1.621-2.948-2.433-5.138-2.433zm-29.314 0c-1.148 0-2.147.185-3 .556-.853.37-1.547.83-2.086 1.376-.54.55-.947 1.121-1.227 1.72-.277.602-.415 1.134-.415 1.591 0 .709.26 1.06.781 1.06h11.893c.452 0 .677-.336.677-1.006 0-.458-.128-.99-.39-1.589-.26-.602-.66-1.174-1.2-1.722-.538-.547-1.226-1.015-2.059-1.404-.836-.39-1.827-.582-2.974-.582zM108.163.253c1.041 0 1.936.372 2.685 1.113.747.744 1.123 1.644 1.123 2.701 0 1.063-.376 1.96-1.123 2.702-.749.743-1.644 1.113-2.685 1.113-1.011 0-1.889-.37-2.636-1.113-.746-.741-1.122-1.642-1.122-2.702 0-1.057.376-1.957 1.122-2.701.747-.741 1.625-1.113 2.636-1.113z" transform="translate(38 24)"/>
                <path d="M209.774 11.377c2.12 0 4.102.38 5.947 1.139 1.842.76 3.441 1.828 4.796 3.207 1.36 1.376 2.428 3.028 3.21 4.952.783 1.923 1.174 4.053 1.174 6.382 0 2.332-.39 4.46-1.174 6.384-.782 1.925-1.852 3.574-3.207 4.953-1.358 1.376-2.957 2.446-4.8 3.205-1.844.759-3.827 1.138-5.946 1.138-2.087 0-4.052-.38-5.894-1.138-1.845-.76-3.445-1.83-4.8-3.205-1.357-1.379-2.425-3.028-3.209-4.953-.781-1.922-1.172-4.052-1.172-6.384 0-2.33.39-4.457 1.172-6.382.784-1.924 1.855-3.576 3.21-4.952 1.354-1.379 2.954-2.446 4.796-3.205 1.845-.759 3.808-1.138 5.897-1.138v-.003zM159.908.255c.903 0 1.677.337 2.32 1.007.642.67.964 1.43.964 2.277 0 .177-.035.442-.104.794l-9.18 33.16c-.347 1.273-.94 2.35-1.773 3.23-.834.886-1.912 1.326-3.234 1.326-1.32 0-2.419-.433-3.286-1.298-.87-.865-1.444-1.95-1.721-3.258l-5.165-23.89-5.163 23.89c-.28 1.308-.853 2.393-1.723 3.258-.868.865-1.964 1.298-3.286 1.298-1.32 0-2.399-.443-3.234-1.325-.834-.88-1.427-1.958-1.773-3.23l-9.18-33.161c-.07-.354-.105-.6-.105-.741 0-.883.33-1.66.99-2.33.662-.67 1.426-1.007 2.296-1.007 1.182 0 2.191.344 3.027 1.032.833.688 1.39 1.617 1.669 2.783l6.31 26.113 5.528-26.116c.245-1.163.784-2.092 1.62-2.78.833-.688 1.842-1.032 3.024-1.032 1.181 0 2.19.344 3.026 1.032.833.688 1.372 1.617 1.617 2.783l5.529 26.113 6.312-26.116c.277-1.163.833-2.092 1.669-2.78.836-.688 1.842-1.032 3.026-1.032zm10.063 0c1.046 0 1.941.37 2.688 1.113.75.742 1.123 1.642 1.123 2.7v10.489c0 .212.069.318.207.318.21 0 .54-.187.992-.556.452-.372 1.016-.769 1.696-1.194.677-.422 1.469-.82 2.374-1.189.902-.372 1.91-.556 3.023-.556 1.496 0 2.844.245 4.046.74 1.199.494 2.198 1.164 2.996 2.012.801.847 1.417 1.846 1.855 2.995.432 1.148.65 2.375.65 3.68v17.428c0 1.024-.373 1.917-1.12 2.676-.75.759-1.627 1.138-2.636 1.138-1.043 0-1.938-.38-2.685-1.138-.75-.76-1.123-1.652-1.123-2.676V23.402c0-1.447-.494-2.673-1.486-3.68-.991-1.007-2.217-1.51-3.679-1.51-1.426 0-2.633.503-3.624 1.51-.99 1.007-1.486 2.251-1.486 3.733v14.78c0 1.024-.374 1.917-1.123 2.676-.747.759-1.642 1.138-2.685 1.138-1.009 0-1.887-.38-2.633-1.138-.75-.76-1.123-1.652-1.123-2.676V4.067c0-1.057.371-1.957 1.123-2.701.746-.741 1.624-1.113 2.633-1.113l-.003.002zm39.803 16.684c-1.286 0-2.435.276-3.444.823-1.009.548-1.87 1.29-2.581 2.225-.715.936-1.261 2.011-1.645 3.23-.383 1.22-.573 2.5-.573 3.84 0 1.34.19 2.63.573 3.868.384 1.236.93 2.314 1.645 3.23.712.92 1.572 1.651 2.58 2.2 1.01.547 2.157.82 3.445.82 1.286 0 2.443-.273 3.47-.82 1.023-.549 1.886-1.28 2.58-2.2.695-.916 1.237-1.994 1.617-3.23.381-1.235.574-2.525.574-3.868 0-1.34-.193-2.62-.574-3.84-.383-1.219-.922-2.296-1.617-3.23-.694-.935-1.557-1.677-2.58-2.225-1.027-.547-2.184-.823-3.47-.823z" opacity=".5" transform="translate(38 24)"/>
            </g>
        </g>
    </g>
</svg>
