<svg xmlns="http://www.w3.org/2000/svg" width="165" height="30" viewBox="0 0 165 30">
    <defs>
        <filter id="oqorde08ua">
            <feColorMatrix in="SourceGraphic" values="0 0 0 0 1.000000 0 0 0 0 1.000000 0 0 0 0 1.000000 0 0 0 1.000000 0"/>
        </filter>
    </defs>
    <g fill="none" fill-rule="evenodd">
        <g filter="url(#oqorde08ua)">
            <g>
                <path fill="#FFF" fill-rule="nonzero" d="M4.64 20v-6.32c0-1.14.72-1.88 1.8-1.88s1.78.74 1.78 1.88V20h3.4v-6.32c0-1.14.72-1.88 1.8-1.88s1.78.74 1.78 1.88V20h3.4v-6.84c0-2.56-1.8-4.26-4.46-4.26-1.32 0-2.56.46-3.4 1.42-.7-.9-1.78-1.42-3.1-1.42-1.18 0-2.3.42-3.08 1.32L4.52 9.1H1.24V20h3.4zm21.76.2c3.54 0 5.94-2.26 5.94-5.66 0-3.38-2.4-5.64-5.94-5.64-3.6 0-6 2.26-6 5.64 0 3.4 2.4 5.66 6 5.66zm-.02-2.92c-1.48 0-2.46-1.1-2.46-2.74 0-1.64.98-2.74 2.46-2.74 1.46 0 2.44 1.1 2.44 2.74 0 1.64-.98 2.74-2.44 2.74zM37.64 20v-5.6c0-1.42 1.46-2.38 3.54-2.38l.22-3.12c-1.62 0-2.96.56-3.82 1.52l-.06-1.32h-3.28V20h3.4zm8.56 0v-6.32c0-1.14.82-1.88 2.08-1.88 1.24 0 2.06.74 2.06 1.88V20h3.4v-6.84c0-2.56-1.7-4.26-4.26-4.26-1.28 0-2.5.46-3.36 1.42l-.04-1.22H42.8V20h3.4zM57.82 7.84c1.14 0 1.96-.82 1.96-1.96 0-1.14-.82-1.96-1.96-1.96-1.14 0-1.98.82-1.98 1.96 0 1.14.84 1.96 1.98 1.96zM59.5 20V9.1h-3.4V20h3.4zm5.9 0v-6.32c0-1.14.82-1.88 2.08-1.88 1.24 0 2.06.74 2.06 1.88V20h3.4v-6.84c0-2.56-1.7-4.26-4.26-4.26-1.28 0-2.5.46-3.36 1.42l-.04-1.22H62V20h3.4zm14.5 4.6c4.04 0 6.68-2.28 6.68-5.74V9.1h-3.26l-.06 1.34c-.74-.98-1.84-1.54-3.32-1.54-2.88 0-5.2 2.22-5.2 5.6 0 3.4 2.32 5.7 5.2 5.7 1.42 0 2.5-.54 3.24-1.46v.1c0 1.72-1.34 2.86-3.36 2.86-1.44 0-2.82-.28-4.06-1.1l-.74 2.66c1.22.88 2.94 1.34 4.88 1.34zm.82-7.32c-1.48 0-2.46-1.1-2.46-2.76 0-1.62.98-2.72 2.46-2.72s2.46 1.1 2.46 2.74c0 1.64-.98 2.74-2.46 2.74zm10.04 2.92c1.18 0 2.14-.98 2.14-2.16 0-1.18-.96-2.14-2.14-2.14-1.18 0-2.14.96-2.14 2.14 0 1.18.96 2.16 2.14 2.16zm7.18 0c1.68 0 3.18-.88 3.92-2.42l.04 2.22h1.4v-6.66c0-2.48-1.68-4.12-4.26-4.12-1.7 0-2.94.52-3.9 1.46l.66.88c.74-.76 1.64-1.18 2.9-1.18 1.94 0 3.16 1.22 3.16 3.14v.74c-1-.24-2.1-.36-3.08-.36-2.6 0-4.32 1.3-4.32 3.22 0 1.86 1.4 3.08 3.48 3.08zm.4-1.08c-1.48 0-2.38-.8-2.38-2.04 0-1.28 1.2-2.14 3-2.14.92 0 1.96.12 2.9.34 0 2.46-1.84 3.84-3.52 3.84zm12.36 5.48c3.48 0 5.8-2.14 5.8-5.36V9.42h-1.4l-.04 2.28c-.72-1.5-2.12-2.48-4.22-2.48-2.96 0-5.08 2.18-5.08 5.46 0 3.32 2.12 5.52 5.08 5.52 2.1 0 3.5-.98 4.22-2.48v1.44c0 2.52-1.76 4.2-4.42 4.2-1.76 0-3.14-.48-4.28-1.3l-.32 1.16c1.2.92 2.8 1.38 4.66 1.38zm.48-5.64c-2.34 0-3.9-1.7-3.9-4.26 0-2.54 1.56-4.22 3.9-4.22 2.32 0 3.88 1.68 3.88 4.24 0 2.54-1.56 4.24-3.88 4.24zm12.96 1.24c1.88 0 3.5-.82 4.52-2.34l-1.1-.62c-.82 1.1-2 1.8-3.42 1.8-2.1 0-3.34-1.5-3.52-3.8h8.44c.02-.16.02-.48.02-.66 0-3.22-2-5.36-4.98-5.36-3.02 0-5.02 2.2-5.02 5.48 0 3.3 2.04 5.5 5.06 5.5zm3.44-5.98h-6.96c.14-2.36 1.44-3.84 3.48-3.84s3.36 1.48 3.48 3.84zm5.44 5.78v-6.38c0-1.9 1.34-3.14 3.36-3.14 2 0 3.34 1.24 3.34 3.14V20h1.44v-6.66c0-2.48-1.74-4.12-4.34-4.12-1.84 0-3.12.74-3.82 1.98l-.02-1.78h-1.4V20h1.44zm15.94.2c1.52 0 2.86-.48 3.82-1.4l-.84-.98c-.74.76-1.78 1.14-2.88 1.14-2.36 0-3.94-1.7-3.94-4.24 0-2.56 1.56-4.24 3.92-4.24 1.02 0 1.84.28 2.6.9l.82-1c-.96-.76-2.06-1.16-3.42-1.16-3.26 0-5.44 2.2-5.44 5.48 0 3.3 2.16 5.5 5.36 5.5zm7.02 4.4c1.58 0 2.24-1 2.9-2.54l5.66-12.64h-1.58l-3.8 8.86-3.92-8.86h-1.58l4.74 10.44-.94 2c-.42.9-.8 1.5-1.7 1.5-.34 0-.66-.06-.9-.18l-.16 1.18c.34.16.82.24 1.28.24z" transform="translate(0 2)"/>
            </g>
        </g>
    </g>
</svg>
