<svg xmlns="http://www.w3.org/2000/svg" width="90" height="90" viewBox="0 0 90 90">
    <g fill="none" fill-rule="evenodd">
        <g>
            <path fill="#FFF" fill-opacity="0" fill-rule="nonzero" d="M34.811 34.88H105.12V105.189H34.811z" transform="translate(-25 -25)"/>
            <g>
                <path d="M0 0L139.909 0 139.909 139.909 0 139.909z" transform="translate(-25 -25) translate(.053 .034)"/>
                <path fill="#FFF" fill-rule="nonzero" d="M69.955 110.794c-22.4 0-40.75-18.44-40.75-40.84 0-5.037.9-9.804 2.609-14.302l23.838 47.946c.27.63.72 1.169 1.44 1.169.719 0 1.169-.54 1.438-1.17L69.505 79.04c.09-.27.27-.54.54-.54s.36.27.54.54l10.974 24.558c.27.63.72 1.169 1.439 1.169.72 0 1.17-.54 1.44-1.17l23.837-47.945c1.71 4.498 2.609 9.265 2.609 14.303-.18 22.398-18.53 40.839-40.93 40.839zm0-50.105c-.27 0-.36-.27-.54-.54L56.64 31.365c4.138-1.53 8.636-2.339 13.314-2.339 4.677 0 9.175.81 13.313 2.34L70.494 60.15c-.18.36-.27.54-.54.54zM56.91 90.284c-.27 0-.36-.27-.54-.54l-20.69-41.738c3.689-5.667 8.637-10.435 14.663-13.763l14.933 33.193c.18.54.63.72 1.08.72h7.196c.54 0 .9-.09 1.17-.72l14.932-33.193c5.937 3.328 10.974 8.096 14.662 13.763l-20.87 41.739c-.09.27-.27.54-.539.54-.27 0-.36-.27-.54-.54l-7.826-17.811c-.27-.63-.63-.72-1.17-.72h-7.195c-.54 0-.9.09-1.17.72l-7.556 17.81c-.09.27-.27.54-.54.54zm13.044 24.648c24.917 0 44.977-20.06 44.977-44.977 0-24.918-20.06-44.978-44.977-44.978-24.918 0-44.978 20.06-44.978 44.978 0 24.917 20.06 44.977 44.978 44.977z" transform="translate(-25 -25) translate(.053 .034)"/>
            </g>
        </g>
    </g>
</svg>
