<svg xmlns="http://www.w3.org/2000/svg" width="300" height="90" viewBox="0 0 300 90">
    <g fill="none" fill-rule="evenodd">
        <g fill-rule="nonzero">
            <path fill="#FFF" d="M30.396 79.616c-10.05 0-18.194-5.427-18.198-15.161-.003-8.294 3.615-12.75 3.41-21.075-.178-7.228-3.228-10.418-3.41-18.215-.193-8.361 8.148-15.161 18.198-15.161h27.74c10.049 0 18.39 6.8 18.195 15.161-.18 7.798-3.23 10.987-3.407 18.215-.207 8.325 3.412 12.781 3.407 21.075-.003 9.734-8.147 15.161-18.196 15.161H30.396z"/>
            <path fill="#000" d="M57.036 53.78c.982.933 4.203 3.257 5.222 5.006 2.41 4.087-.624 5.65-5.087 6.765 0 0-8.01 1.38-14.158 1.336-8.156-.055-21.806-1.173-18.788-8.704 2.059-5.139 11.93-6.153 12.794-6.012.964.157.757.835-.729 1.498-9.223 5.25 1.02 5.454 1.02 5.454l11.23.076c1.24-.175-.202-1.099-.352-1.275L33.064 45.368c-1.684-1.573-5.734-5.631-6.418-7.329-1.404-4.786 6.196-6.011 16.353-6.171 8.307-.135 19.391.02 21.13 4.366 2.048 5.11-6.114 9.632-12.473 10.453-.815.105-1.008.164-1.475-.179-.933-.682 1.618-1.525 2.258-1.924 8.145-4.66-2.232-4.726-2.232-4.726s-7.842-.1-10.485-.032c-.522.014-.995.065-.627.42.706.68 1 .881 1.681 1.39l16.26 12.144zM42.25 21.464l2.887-1.632c3.466-1.962 7.22-1.966 8.385-.006 1.167 1.958-.697 5.137-4.162 7.1l-2.885 1.63c-3.465 1.962-7.22 1.966-8.385.006-1.167-1.957.695-5.135 4.16-7.098"/>
            <path fill="#FFF" d="M108.588 55.184c-.348.353-1.22.335-1.22.335H84.304V33.77h17.556c1.6 0 3.666.384 5.008 1.704 1.91 1.83 2.067 3.873 2.067 7.446v11.172s-.035.772-.346 1.09m-6.833-4.514v-9.023c0-.723-.103-1.873-.26-2.298-.152-.426-.67-.597-1.034-.597H91.48v11.918h10.275zM131.863 55.519V42.92c0-3.573-.154-5.616-2.065-7.445-1.343-1.32-3.41-1.705-5.01-1.705h-14.043v5.151h12.495c.36 0 .878.169 1.03.596.157.425.26 1.575.26 2.298v13.703h7.333zM220.583 55.519V42.92c0-3.573-.158-5.616-2.065-7.445-1.344-1.32-3.411-1.705-5.013-1.705H199.19v5.151h12.768c.364 0 .88.169 1.034.596.156.425.257 1.575.257 2.298v13.703h7.335zM250.124 33.771H257.456V55.518H250.124zM191.054 43.232H198.135V47.974H191.054zM279.258 44.89c0 4.068-1.038 6.608-6.005 6.598-2.929-.006-5.125-2.58-5.125-6.602v-6.46c0-.03 6.824.021 8.103.043 3.339.057 3.027 2.264 3.027 6.421m7.265-.059c0-7.579.298-11.39-7.133-11.39h-18.501c-.14 1.243.105 9.041.105 12.809 0 6.825 6.66 10.324 12.74 10.324 7.676 0 12.789-4.298 12.789-11.743M175.268 37.875c-5.015 0-5.071 5.929-3.808 8.782h-7.421c-2.985-8.67 2.768-13.821 11.23-13.821 9.6 0 12.8 5.3 12.33 12.9-.489 7.94-5.78 9.785-12.896 9.785l-10.462-.04-.007-5.122h8.574c4.153 0 7.36-1.008 7.36-5.397-.001-3.443-.734-7.087-4.9-7.087M162.275 55.654c-1.65-2.34-3.59-4.744-5.757-7.128.597.08 1.647-.74 2.028-1.21 1.973-2.042 2.233-8.796 2.233-13.322v-.086h-7.745v.256c0 2.722.274 8.038-.912 9.993-2.428-2.68-7.506-8.335-9.673-10.249h-8.316c1.964 1.745 3.254 3.145 5.321 5.229-4.535.032-4.391 9.666-4.391 16.22v.297h7.282v-.68c0-5.489.537-9.776 1.518-11.352 2.169 2.341 7.776 8.543 10.412 12.032h8zM234.98 37.875c-5.015 0-5.074 5.929-3.81 8.782h-7.42c-2.984-8.67 2.764-13.821 11.23-13.821 9.6 0 12.801 5.3 12.33 12.9-.488 7.94-5.78 9.785-12.9 9.785l-10.458-.04-.01-5.122h8.577c4.15 0 7.356-1.008 7.356-5.397 0-3.443-.732-7.087-4.895-7.087"/>
        </g>
    </g>
</svg>
