<svg xmlns="http://www.w3.org/2000/svg" xmlns:xlink="http://www.w3.org/1999/xlink" width="300" height="90" viewBox="0 0 300 90">
    <defs>
        <path id="nelycmvxha" d="M2.584 49.944L258.393 49.944 258.393 4.272 2.584 4.272z"/>
    </defs>
    <g fill="none" fill-rule="evenodd">
        <g>
            <g transform="translate(20 17) matrix(1 0 0 -1 .143 55.934)">
                <mask id="4afnczbjdb" fill="#fff">
                    <use xlink:href="#nelycmvxha"/>
                </mask>
                <g fill="#FFF" fill-rule="nonzero" mask="url(#4afnczbjdb)">
                    <path d="M2.584 4.272L258.393 4.272 258.393 49.944 2.584 49.944z"/>
                </g>
            </g>
            <path fill="#000" fill-rule="nonzero" d="M48.671 50.327L257.306 50.327 257.306 7.35 48.671 7.35z" transform="translate(20 17)"/>
            <path fill="#FFF" fill-rule="nonzero" d="M4.068 50.327L47.015 50.327 47.015 7.35 4.068 7.35z" transform="translate(20 17)"/>
            <path fill="#FFF" fill-rule="nonzero" d="M5.428 48.967L45.654 48.967 45.654 8.71 5.428 8.71zM66.58 17.656c.897-.204 1.657-.31 2.238-.31 1.057 0 2.003.242 2.825.718.81.47 1.447 1.193 1.898 2.145.458.976.686 2.052.686 3.196 0 1.638-.476 2.992-1.415 4.018-.946 1.026-2.034 1.52-3.326 1.52-.371 0-.835-.03-1.366-.092-.452-.062-.977-.148-1.54-.247V17.656zm7.808-1.948c-1.465-.525-3.48-.797-5.984-.797H57.876v1.545h1.44c.934 0 1.608.254 2.065.767.167.198.445.84.445 2.992v17.99c0 1.96-.21 2.59-.34 2.794-.426.643-1.137.958-2.17.958h-1.44v1.552h12.649v-1.552h-1.447c-.927 0-1.595-.247-2.028-.76-.179-.198-.47-.847-.47-2.993v-7.597c.693.148 1.379.266 2.028.352.791.1 1.533.149 2.207.149 2.8 0 5.007-.755 6.565-2.25 1.558-1.497 2.343-3.463 2.343-5.836 0-1.756-.519-3.302-1.551-4.587-1.02-1.274-2.294-2.189-3.784-2.727M107.116 14.744h-.396v1.545h1.428c.927 0 1.601.248 2.052.767.173.198.47.86.47 2.992v11.233c0 2.88-.26 4.933-.76 6.114-.489 1.143-1.428 2.101-2.782 2.85-1.366.754-2.949 1.137-4.698 1.137-1.354 0-2.51-.241-3.425-.717-.915-.47-1.62-1.07-2.102-1.787-.488-.723-.828-1.762-1.014-3.09-.198-1.36-.297-2.591-.297-3.648V20.048c0-1.83.235-2.56.433-2.85.408-.612 1.088-.909 2.077-.909h1.44v-1.545H86.895v1.545h1.422c.903 0 1.552.223 1.935.662.272.309.594 1.1.594 3.097v10.85c0 3.424.222 5.705.68 6.973.68 1.848 1.854 3.338 3.492 4.432 1.632 1.094 4.025 1.644 7.128 1.644 2.85 0 5.15-.574 6.831-1.712 1.682-1.137 2.825-2.535 3.407-4.142.568-1.57.853-3.79.853-6.602V20.252c0-1.929.222-2.553.358-2.757.513-.816 1.218-1.206 2.164-1.206h1.428v-1.545h-.396M134.656 17.612c1.15-.222 2.096-.34 2.782-.34 1.65 0 2.992.507 3.987 1.509 1.002 1.014 1.496 2.3 1.496 3.938 0 1.663-.612 2.998-1.86 4.074-1.25 1.075-3.16 1.625-5.67 1.625-.104 0-.24-.006-.45-.012-.075 0-.174-.006-.285-.006V17.612zm15.857 23.25c-.89-.574-1.99-1.774-3.264-3.56-.006-.006-4.18-5.774-5.416-7.486 2.12-.557 3.74-1.44 4.81-2.646 1.175-1.323 1.774-2.912 1.774-4.711 0-1.688-.525-3.165-1.558-4.39-1.02-1.205-2.28-2.045-3.752-2.497-1.434-.445-3.666-.667-6.64-.667h-10.509v1.545h1.428c.934 0 1.601.254 2.053.767.179.198.47.847.47 2.992v17.99c0 1.953-.23 2.583-.36 2.787-.426.65-1.13.965-2.163.965h-1.428v1.545h12.648v-1.545h-1.47c-.916 0-1.571-.248-2.01-.76-.18-.199-.47-.848-.47-2.993v-7.69c.068.006.142.012.21.012.18.006.371.006.57.006.395 0 .89-.012 1.458-.03l9.322 12.84.118.16h8.055v-1.502l-.359-.037c-1.446-.16-2.627-.526-3.517-1.094M162.914 14.917h-.396v1.545h1.373c.58 0 1.143.149 1.681.446.334.191.556.42.655.68.112.272.241.952.241 2.633v17.983c0 2.059-.26 2.714-.414 2.918-.432.563-1.143.841-2.163.841h-1.373v1.546h12.649v-1.546h-1.391c-.575 0-1.132-.148-1.651-.439-.346-.198-.575-.426-.674-.68-.111-.272-.235-.958-.235-2.64V20.221c0-2.058.266-2.708.42-2.912.44-.568 1.138-.847 2.14-.847h1.39v-1.545h-.401M216.678 16.06v-1.15h-10.472v1.546h1.366c.97 0 1.682.248 2.108.736.18.198.476.847.476 2.955v14.892L193.72 15.06l-.118-.148h-8.13v1.545h.403c.76 0 1.329.062 1.681.173.76.248 1.335.513 1.725.792.358.266.927.853 1.663 1.718v19.133c0 1.942-.235 2.578-.383 2.788-.415.606-1.138.897-2.201.897h-1.366v1.545h10.472v-1.545h-1.385c-.964 0-1.675-.247-2.114-.736-.167-.191-.451-.834-.451-2.949V22.25l17.779 21.562.117.143h1.31V20.147c0-1.941.242-2.578.384-2.788.42-.606 1.131-.903 2.182-.903h1.391M235.082 22.063l4.012 9.805h-8.271l4.259-9.805zm15.95 19.888c-1.04-.062-1.849-.34-2.411-.835-.594-.513-1.274-1.681-2.016-3.474l-9.464-23.102-.105-.247h-1.354l-.105.24-9.941 22.825c-.822 1.972-1.57 3.282-2.225 3.9-.161.155-.637.452-2.047.699l-.327.062v1.477h9.52v-1.514l-.371-.031c-1.558-.112-2.164-.353-2.392-.538-.31-.241-.458-.507-.458-.81 0-.328.118-.99.668-2.263l1.786-4.104h10.275c.352.859 1.539 3.752 1.539 3.758.525 1.23.791 2.133.791 2.67 0 .322-.142.594-.439.83-.216.172-.748.401-2.009.457l-.383.018v1.527h11.845v-1.52" transform="translate(20 17)"/>
            <path fill="#000" fill-rule="nonzero" d="M4.068 50.327L47.015 50.327 47.015 7.35 4.068 7.35z" transform="translate(20 17)"/>
            <path fill="#FFF" fill-rule="nonzero" d="M5.521 48.794L45.395 48.794 45.395 8.883 5.521 8.883z" transform="translate(20 17)"/>
            <path fill="#000" fill-rule="nonzero" d="M7.141 22.7L19.406 22.7 19.406 10.423 7.141 10.423zM31.677 22.7L43.948 22.7 43.948 10.423 31.677 10.423zM19.406 34.977L31.677 34.977 31.677 22.699 19.406 22.699zM7.141 47.261L19.406 47.261 19.406 34.977 7.141 34.977zM31.677 47.261L43.948 47.261 43.948 34.977 31.677 34.977z" transform="translate(20 17)"/>
        </g>
    </g>
</svg>
