<svg xmlns="http://www.w3.org/2000/svg" width="300" height="90" viewBox="0 0 300 90">
    <g fill="none" fill-rule="evenodd">
        <g fill="#FFF" fill-rule="nonzero">
            <g>
                <g>
                    <path d="M172.851 8.186s-1.482-3.32-3.136-7.319h-3.816l3.452 7.617c.534 1.2.681 1.95.439 2.374-.268.5-.971.65-1.897.65h-5.915v4.937h3.477V13.98h4.286c1.92 0 3.013-.996 3.403-2.297.388-1.222.17-2.398-.293-3.496M183.058.87c-.922 1.672-3.524 5.444-4.473 6.668-.511-.474-.85-1.474-.85-2.148V.87h-3.452v3.646c0 1.473 1.093 3.548 3.112 4.621l-3.693 4.843h4.25l4.184-5.894c.826.35.777 1.875.777 2.573v3.321h3.478v-2.92c0-1.523-.879-3.722-2.967-4.57 1.191-1.924 3.745-5.62 3.745-5.62h-4.11zM198.077.87h-3.43v8.067c0 2.223-1.456 2.922-3.256 2.922-1.12 0-2.26-.275-2.942-.551v2.397c1.41.451 2.843.553 4.326.553 2.408 0 5.325-1.4 5.325-4.473V.845l-.023.024zM215.912 6.238c-.436-3.62-3.84-5.768-7.148-5.768-2.285 0-4.935.423-6.442 2.298-1.312 1.648-1.507 3.994-1.703 6.192 0 0-.313 3.797-.436 5.02h3.452c.171-2.197.363-4.52.585-6.717 1.481-.15 2.644.774 2.837 2.772 0 0 .268 2.596.39 3.944h3.404c-.146-1.446-.294-2.896-.485-4.595-.319-2.52-2.11-3.97-5.005-3.97h-.754c.318-1.923 1.508-2.597 3.793-2.597 2.917 0 4.014 2.399 4.278 4.944 0 0 .536 5.145.634 6.218h3.525c-.316-2.596-.925-7.74-.925-7.74M218.921 6.192v7.792h3.452V7.168c-1.14-.426-2.625-.775-3.452-.976M114.58 36.165v7.528c0 1.603-.985 3.01-2.764 3.01h-1.873v-7.675c0-2.148-1.418-3.234-3.482-3.234-1.01 0-2.139.197-2.574.493v2.323c.435-.225.723-.321 1.206-.321 1.197 0 1.44.739 1.44 1.577v5.776l.359 1.061h-2.787v2.42h8.65c3.41 0 5.237-2.147 5.237-5.208v-7.75h-3.412zM119.546 41.424v7.698h3.412v-6.737c-1.13-.42-2.597-.764-3.412-.961M133.86 46.674L133.86 36.159 130.45 36.159 130.45 46.674 124.515 46.674 124.515 49.117 135.615 49.117 135.615 46.674zM137.299 49.116L140.712 49.116 140.712 36.158 137.299 36.158zM143.07 36.165v7.107c.987.297 2.283.445 3.436.692v-7.8h-3.435zm7.835 0v7.404c0 2.146-1.563 3.333-3.917 3.333-1.058 0-2.765-.173-4.182-.544V48.9c1.659.445 3.749.421 5.431.421 2.668 0 6.077-1.26 6.077-4.541v-8.614h-3.41zM155.903 41.424v7.698h3.412v-6.737c-1.13-.42-2.596-.764-3.412-.961M161.555 36.165v7.107c.984.297 2.28.445 3.43.692v-7.8h-3.43zm7.83 0v7.404c0 2.146-1.562 3.333-3.917 3.333-1.055 0-2.763-.173-4.179-.544V48.9c1.658.445 3.747.421 5.43.421 2.666 0 6.08-1.26 6.08-4.541v-8.614h-3.414zM190.906 36.165v7.526c0 1.606-.983 3.013-2.762 3.013h-1.872v-7.676c0-2.147-1.42-3.233-3.485-3.233-1.01 0-2.139.196-2.572.492v2.322c.433-.223.723-.321 1.204-.321 1.2 0 1.44.74 1.44 1.58v5.773l.36 1.063h-2.786v2.418h8.648c3.414 0 5.238-2.146 5.238-5.208v-7.75h-3.413zM196.778 49.125L200.189 49.125 200.189 36.168 196.778 36.168zM202.074 36.165v2.444h3.411v6.49c0 1.158-.793 1.825-1.85 1.825-.458 0-.888-.073-1.322-.22v2.27c.911.174 1.564.346 2.547.346 2.811 0 4.013-1.532 4.013-4.196v-8.96h-6.8zM214.12 35.817c-1.368 0-2.33.174-3.29.642v2.42c.648-.494 1.68-.691 2.906-.691 2.861 0 3.557 1.727 3.557 4.615 0 2.74-1.153 4.22-3.508 4.22-1.177 0-2.357-.248-2.956-.592v2.443c1.37.47 2.065.493 3.413.493 4.036 0 6.51-2.567 6.51-6.564 0-4.492-2.188-6.986-6.633-6.986M222.753 49.125L226.165 49.125 226.165 36.168 222.753 36.168zM234.662 47.323c-2.62 0-3.054-3.183-3.054-4.664 0-2.121.698-4.565 3.054-4.565 2.33 0 3.026 2.444 3.026 4.565 0 1.481-.43 4.664-3.026 4.664m-.024-11.525c-4.396 0-6.464 2.814-6.464 6.837s2.041 6.861 6.44 6.861c4.395 0 6.485-2.838 6.485-6.861s-2.066-6.837-6.46-6.837M243.25 36.165v7.108c.986.295 2.283.444 3.436.69v-7.798h-3.436zm7.832 0v7.403c0 2.147-1.558 3.333-3.913 3.333-1.06 0-2.766-.174-4.18-.543V48.9c1.657.447 3.746.421 5.427.421 2.666 0 6.08-1.26 6.08-4.542v-8.613h-3.414zM72.169 46.601L72.169 36.188 69.269 36.188 69.269 46.601 66.238 46.601 66.238 49.156 75.197 49.156 75.197 46.601zM83.931 36.183L83.931 41.582 79.311 41.582 79.311 36.183 76.393 36.183 76.393 49.153 79.311 49.153 79.311 44.175 83.931 44.175 83.931 49.153 86.848 49.153 86.848 36.183zM89.419 36.183L89.419 49.153 96.526 49.153 96.526 46.636 92.335 46.636 92.335 44.06 96.301 44.06 96.301 41.621 92.335 41.621 92.335 38.757 96.526 38.757 96.526 36.183zM72.196 11.452L72.196 8.687 76.01 8.687 76.01 6.227 72.196 6.227 72.196 1.04 69.278 1.04 69.278 14.01 76.235 14.01 76.235 11.452zM83.3 11.525c-1.518 0-2.955-1.211-2.955-3.92 0-2.496.897-4.073 2.896-4.073 1.386 0 3.013 1.056 3.013 3.997 0 2.613-1.03 3.996-2.954 3.996M83.075.785c-3.909 0-5.818 2.496-5.818 6.57 0 4.228 2.824 6.898 6.266 6.898 3.33 0 5.818-1.977 5.818-6.531 0-4.267-2.77-6.938-6.266-6.938M94.705 11.644c-.3 0-.636-.021-.805-.039V8.28c.15-.019.45-.037.731-.037 1.233 0 2.02.67 2.02 1.766 0 1.02-.581 1.635-1.946 1.635m2.3-10.607l-2.993 5.072H93.9V1.037h-2.916v12.97c1.063.075 2.429.096 3.946.096 2.973 0 4.77-1.097 4.77-3.843 0-1.749-1.104-3.17-2.789-3.593.338-.501.656-.98.973-1.46l2.676-4.17h-3.556zM105.809 14.003L108.726 14.003 108.726 1.032 105.809 1.032zM113.446.805c-.88 0-1.776.096-2.584.291l.152 2.766c.71-.27 1.74-.482 2.656-.482 1.065 0 1.832.463 1.832 1.383 0 2.21-5.03 1.076-5.03 5.42 0 2.44 1.85 4.054 5.012 4.054.672 0 1.515-.077 2.3-.23l-.17-2.595c-.708.211-1.493.345-2.242.345-1.215 0-1.778-.539-1.778-1.268 0-2.016 5.031-1.248 5.031-5.303 0-2.517-1.962-4.38-5.18-4.38M124.083 11.644c-.3 0-.636-.021-.805-.039V8.28c.15-.019.45-.037.731-.037 1.233 0 2.02.67 2.02 1.766 0 1.02-.58 1.635-1.946 1.635m2.3-10.607l-2.993 5.072h-.112V1.037h-2.917v12.97c1.065.075 2.432.096 3.945.096 2.975 0 4.77-1.097 4.77-3.843 0-1.749-1.104-3.17-2.786-3.593.337-.501.655-.98.973-1.46l2.675-4.17h-3.555zM136.54 8.397c-.244.729-.45 1.382-.581 2.15h-.037c-.132-.709-.336-1.516-.599-2.303l-.821-2.442h2.916l-.878 2.595zm2.393-7.36l-.787 2.401h-4.355l-.767-2.4h-2.899l4.264 12.97h3.31l4.433-12.97h-3.2zM143.153 1.034L143.153 14.004 150.262 14.004 150.262 11.486 146.073 11.486 146.073 8.911 150.037 8.911 150.037 6.472 146.073 6.472 146.073 3.609 150.262 3.609 150.262 1.034zM152.263 1.034L152.263 14.004 155.18 14.004 155.18 3.685 158.994 3.685 158.994 1.034zM210.927 22.848v-7.024h-3.376v5.696c0 1.5-.358 3.098-1.125 4.646 0 0-1.864 3.689-2.701 5.407h3.804c.957-1.94 1.987-4.227 2.897-6.686.835.32 1.768 1.38 1.768 3.788v2.898h3.376v-3.315c0-2.289-1.987-5.042-4.643-5.41M226.696 18.668h-3.374v7.943c0 2.185-1.436 2.875-3.208 2.875-1.101 0-2.223-.271-2.894-.542v2.36c1.387.443 2.8.541 4.26.541 2.368 0 5.24-1.376 5.24-4.4v-8.8l-.024.023zM237.991 18.668c-.91 1.648-3.472 5.36-4.406 6.564-.499-.466-.835-1.45-.835-2.113v-4.451h-3.4v3.59c0 1.45 1.078 3.49 3.064 4.548l-3.636 4.77h4.186l4.116-5.803c.813.345.768 1.845.768 2.533v3.27h3.422V28.7c0-1.5-.862-3.664-2.923-4.5 1.175-1.893 3.687-5.532 3.687-5.532h-4.043zM254.025 25.875s-1.46-3.269-3.085-7.204h-3.758l3.398 7.498c.528 1.18.669 1.917.431 2.336-.263.491-.958.639-1.869.639h-5.818v4.862h3.422v-2.429h4.217c1.89 0 2.967-.982 3.35-2.26.381-1.206.167-2.36-.288-3.442M68.592 18.412c-.766 0-1.198.057-1.663.154v2.537c.26-.098.616-.172 1.065-.172.803 0 1.272.364 1.272 1.554v9.088h2.9v-9.185c0-2.093-.824-3.976-3.574-3.976M74.638 18.604L74.638 31.572 81.746 31.572 81.746 29.054 77.556 29.054 77.556 26.482 81.522 26.482 81.522 24.04 77.556 24.04 77.556 21.179 81.746 21.179 81.746 18.604zM96.845 18.604h-3.533l-1.499 6.11c-.203.864-.354 1.881-.466 2.957h-.02c-.091-.998-.241-1.938-.467-2.862l-1.515-6.205h-3.329l-3.121 12.968h3.084l1.478-6.322c.187-.845.336-1.785.41-2.708h.019c.131.902.262 1.768.487 2.633l1.646 6.397h3.01l1.647-6.283c.188-.73.375-1.69.507-2.67h.017c.133.998.28 1.904.467 2.729l1.42 6.224h2.92l-3.162-12.968zM101.364 31.573L104.281 31.573 104.281 18.606 101.364 18.606zM109 18.375c-.88 0-1.776.096-2.58.287l.149 2.768c.711-.27 1.739-.481 2.657-.481 1.064 0 1.83.46 1.83 1.384 0 2.21-5.028 1.075-5.028 5.417 0 2.44 1.849 4.055 5.01 4.055.675 0 1.517-.075 2.302-.232l-.17-2.593c-.708.212-1.494.345-2.243.345-1.216 0-1.778-.537-1.778-1.267 0-2.017 5.032-1.247 5.032-5.303 0-2.516-1.964-4.38-5.18-4.38M123.452 18.604L123.452 24.003 118.832 24.003 118.832 18.604 115.914 18.604 115.914 31.572 118.832 31.572 118.832 26.595 123.452 26.595 123.452 31.572 126.37 31.572 126.37 18.604zM137.903 25.967c-.244.73-.45 1.384-.58 2.15h-.037c-.132-.709-.337-1.516-.6-2.304l-.82-2.44h2.915l-.878 2.594zm2.395-7.359l-.788 2.401h-4.359l-.765-2.4h-2.899l4.264 12.969h3.31l4.435-12.97h-3.198zM154.065 28.445c-.992.406-2.131.654-3.349.654-2.394 0-3.928-1.555-3.928-4.093 0-2.401 1.235-3.899 3.59-3.899.449 0 .862.055 1.197.172v4.247h2.921v-6.284c-1.237-.52-2.807-.844-4.436-.844-4.094 0-6.414 2.44-6.414 6.378 0 4.13 2.75 6.993 7.24 6.993 1.272 0 2.559-.23 3.628-.556l-.45-2.768zM156.699 18.604L156.699 31.572 163.806 31.572 163.806 29.054 159.617 29.054 159.617 26.482 163.579 26.482 163.579 24.04 159.617 24.04 159.617 21.179 163.806 21.179 163.806 18.604zM172.796 18.604l-2.975 5.591c-.524.997-.973 1.999-1.311 2.843.058-.96.095-2.267.095-3.496v-4.938H165.8v12.968h3.741l2.769-5.13c.56-1.055 1.084-2.19 1.533-3.19-.096 1.116-.131 2.825-.131 4.055v4.265h2.805V18.604h-3.72zM184.165 18.43c-4.658 0-5.91 3.247-5.91 6.188 0 4.209 2.224 7.05 6.397 7.05.879 0 1.794-.115 2.582-.327l-.338-2.708c-.71.212-1.516.344-2.3.344-2.04 0-3.143-1.518-3.143-3.86 0-2.557 1.008-3.96 3.294-3.96.652 0 1.606.174 2.204.462l.338-2.67c-.917-.326-2.04-.519-3.124-.519M194.674 23.14v-4.534h-2.917v4.515l-3.946 8.454h3.18l1.438-3.305c.338-.77.599-1.44.806-2.073h.036c.245.73.598 1.517.973 2.342l1.368 3.036h3.066l-4.004-8.435zM.462 22.555L13.262 22.555 14.602 24.335 3.99 24.335 13.013 36.327 11.797 37.622z" transform="translate(23 14) matrix(1 0 0 -1 0 60.98)"/>
                    <path d="M7.513 26.131L15.95 26.131 17.288 27.91 11.044 27.91 15.435 33.746 14.219 35.04zM17.355 18.796L17.355 25.082 19.052 27.299 19.052 21.783 27.427 14.541 27.427 1.039 25.725 1.039 25.725 11.531z" transform="translate(23 14) matrix(1 0 0 -1 0 60.98)"/>
                    <path d="M24.022 1.034L22.324 1.034 22.324 7.683 13.954 14.948 13.954 20.536 15.653 22.791 15.653 17.919 24.022 10.71zM39.187 18.796L39.187 25.082 37.487 27.299 37.487 21.783 29.115 14.541 29.115 1.039 30.815 1.039 30.815 11.531z" transform="translate(23 14) matrix(1 0 0 -1 0 60.98)"/>
                    <path d="M32.519 1.034L34.219 1.034 34.219 7.683 42.589 14.948 42.589 20.536 40.891 22.791 40.891 17.919 32.519 10.71zM15.013 41.9L16.229 40.608 28.271 56.611 40.315 40.604 41.53 41.896 28.271 59.518z" transform="translate(23 14) matrix(1 0 0 -1 0 60.98)"/>
                    <path d="M28.275 53.707L17.444 39.314 18.66 38.018 28.275 50.798 37.893 38.015 39.109 39.31z" transform="translate(23 14) matrix(1 0 0 -1 0 60.98)"/>
                    <path d="M38.282 49.134L39.62 47.356 49.081 47.356 28.281 25.223 7.469 47.356 16.934 47.356 18.274 49.134 3.388 49.134 28.281 22.646 53.163 49.134zM44.748 37.619L43.532 36.326 52.552 24.336 41.946 24.336 43.286 22.557 56.082 22.557z" transform="translate(23 14) matrix(1 0 0 -1 0 60.98)"/>
                    <path d="M42.324 35.031L41.109 33.738 45.498 27.904 39.257 27.904 40.596 26.126 49.027 26.126z" transform="translate(23 14) matrix(1 0 0 -1 0 60.98)"/>
                </g>
            </g>
        </g>
    </g>
</svg>
