<svg xmlns="http://www.w3.org/2000/svg" width="300" height="90" viewBox="0 0 300 90">
    <g fill="none" fill-rule="evenodd">
        <g fill="#FFF" fill-rule="nonzero">
            <g>
                <path d="M167.984 32.535l26.495-12.048c-.417 10.327-8.933 18.57-19.374 18.57-10.707 0-19.39-8.67-19.39-19.364S164.397.329 175.105.329c3.102 0 6.034.728 8.633 2.022l-13.834 6.365c-.337.185-.66.453-.947.739-1.168 1.166-1.484 2.857-.959 4.314l25.997-11.951c.145.497.214 1.042.214 1.586 0 2.22-1.309 4.13-3.196 5.018l-21.118 9.705c-.34.185-.666.418-.951.706-1.167 1.166-1.484 2.856-.96 4.313l26.024-11.95c.145.498.201 1.042.201 1.586 0 2.22-1.309 4.13-3.196 5.017l-21.129 9.715c-.337.184-.67.431-.955.717-1.17 1.165-1.47 2.848-.945 4.304M146.991 7.813v9.334c0 3.15-2.557 5.706-5.715 5.706V7.813h5.715zM122.668 7.813L129.731 7.813 133.904 13.519 122.668 13.519zM122.668 16.372H128.38500000000002V31.414H122.668zM139.928 31.415L128.928 16.373 135.99 16.373 146.991 31.415z" transform="translate(53 25)"/>
                <g>
                    <path d="M.592.444h16.416c3.157 0 5.715 2.556 5.715 5.707H.593V.444zM10.848 24.279v-5.707h5.93V9.004h5.712v9.568c0 3.152-2.559 5.707-5.715 5.707h-5.927z" transform="translate(53 25) translate(73.784 7.368)"/>
                </g>
                <path d="M74.377 16.372H80.092V37.119H74.377zM.44 16.372H6.1530000000000005V31.414H.44z" transform="translate(53 25)"/>
                <path d="M20.885 13.519v17.896H15.17V13.519H.44V7.813H15.17c3.155 0 5.714 2.555 5.714 5.706M38.473 16.372H44.188V31.414H38.473zM23.74 7.813h14.733c3.157 0 5.716 2.555 5.716 5.706H23.74V7.813zM58.472 7.813h6.163c3.153 0 5.712 2.555 5.712 5.706H58.472V7.813z" transform="translate(53 25)"/>
                <path d="M70.348 31.415L48.217 31.415 48.217 7.813 53.932 7.813 53.932 25.706 64.634 25.706 64.634 16.373 70.348 16.373zM108.17 31.647V25.94h5.927v-9.567h5.713v9.567c0 3.153-2.557 5.707-5.713 5.707h-5.927zM105.079 7.813h9.018c3.156 0 5.713 2.555 5.713 5.706H99.366V2.105h5.713v5.708z" transform="translate(53 25)"/>
            </g>
        </g>
    </g>
</svg>
