<svg xmlns="http://www.w3.org/2000/svg" width="300" height="90" viewBox="0 0 300 90">
    <g fill="none" fill-rule="evenodd">
        <g>
            <g fill="#62A93B">
                <g>
                    <path fill-rule="nonzero" d="M79.998 10.973c21.549 0 60.135 3.188 77.328 16.743.154.123.565.369.873.205.182-.096.244-.223.334-.407.397-.819.542-1.7.603-2.825.06-1.11.08-1.784-.283-2.834-.136-.393-.241-.602-.468-.946-.18-.271-.403-.534-.527-.649-.449-.41-1.703-1.344-1.814-1.426C137.138 4.827 103.12.579 80.02.579h-.626C56.292.58 22.274 4.827 3.37 18.834c-.112.082-1.366 1.016-1.815 1.426-.125.115-.347.378-.527.65-.227.343-.332.552-.468.945-.363 1.05-.344 1.724-.282 2.834.06 1.125.206 2.006.603 2.825.09.184.151.31.332.407.309.164.72-.082.873-.205 17.195-13.555 55.78-16.743 77.33-16.743h.583zM30.454 43.195v7.678c0 6.12-1.062 8.29-5.252 8.29h-9.498v-7.288h2.682c1.452 0 1.62-.612 1.62-4.062v-5.564c0-2.95-1.34-4.84-4.079-4.84-2.793 0-4.246 1.779-4.246 4.84v16.915H1.401v-15.97c0-9.626 5.867-13.187 14.526-13.187 8.828 0 14.527 3.45 14.527 13.188M47.39 38.02v11.017c0 7.289-.782 10.126-5.475 10.126h-9.498v-7.289h2.85c1.508 0 1.62-1.558 1.62-3.45v-7.623c0-2.559-.28-2.781-1.006-2.781H30.91v-7.29h13.073c2.29 0 3.408 1.447 3.408 7.29M60.857 30.73v22.925c0 3.283-1.676 5.508-5.643 5.508h-6.257v-7.288c1.006 0 1.452-.557 1.452-1.614V30.73h10.448" transform="translate(68 15) matrix(1 0 0 -1 .371 59.64)"/>
                    <path d="M91.479 47.2c0 9.905-2.403 11.963-7.877 11.963H62.54v-7.289h15.308c2.346 0 2.905-.612 2.905-5.841 0-5.565-2.29-8.013-5.53-8.013v-7.29h3.184c5.587 0 13.073 3.45 13.073 16.47M62.763 20.595h10.224v26.39H62.763v-26.39zM122.154 42.972v10.127c0 4.785-2.067 6.064-4.637 6.064H97.683c-2.737 0-4.693-1.39-4.693-6.064V42.972c0-10.07 7.487-12.965 14.694-12.965 7.542 0 14.47 2.671 14.47 12.965m-10.336-.724c0-3.116-1.396-4.84-4.134-4.84-2.738 0-4.358 1.78-4.358 4.84v6.677c0 2.337.223 2.95 1.676 2.95h5.195c1.453 0 1.621-.613 1.621-2.95v-6.677" transform="translate(68 15) matrix(1 0 0 -1 .371 59.64)"/>
                    <path fill-rule="nonzero" d="M135.568 42.75v10.905c0 3.283-1.116 5.509-5.084 5.509h-6.76v-7.289c1.118 0 1.397-.557 1.397-1.614v-7.512h10.447M162.847 51.875v7.289h-25.812v-7.29h14.08c-1.565-1-3.521-3.56-3.521-7.678V30.73h10.393v15.58c0 2.893.558 4.84 1.676 5.564h3.184M79.998 10.973c21.549 0 60.135 3.188 77.328 16.743.154.123.565.369.873.205.182-.096.244-.223.334-.407.397-.819.542-1.7.603-2.825.06-1.11.08-1.784-.283-2.834-.136-.393-.241-.602-.468-.946-.18-.271-.403-.534-.527-.649-.449-.41-1.703-1.344-1.814-1.426C137.138 4.827 103.12.579 80.02.579h-.626C56.292.58 22.274 4.827 3.37 18.834c-.112.082-1.366 1.016-1.815 1.426-.125.115-.347.378-.527.65-.227.343-.332.552-.468.945-.363 1.05-.344 1.724-.282 2.834.06 1.125.206 2.006.603 2.825.09.184.151.31.332.407.309.164.72-.082.873-.205 17.195-13.555 55.78-16.743 77.33-16.743h.583z" transform="translate(68 15) matrix(1 0 0 -1 .371 59.64)"/>
                </g>
            </g>
            <g fill="#FFF">
                <g>
                    <path fill-rule="nonzero" d="M79.998 10.973c21.549 0 60.135 3.188 77.328 16.743.154.123.565.369.873.205.182-.096.244-.223.334-.407.397-.819.542-1.7.603-2.825.06-1.11.08-1.784-.283-2.834-.136-.393-.241-.602-.468-.946-.18-.271-.403-.534-.527-.649-.449-.41-1.703-1.344-1.814-1.426C137.138 4.827 103.12.579 80.02.579h-.626C56.292.58 22.274 4.827 3.37 18.834c-.112.082-1.366 1.016-1.815 1.426-.125.115-.347.378-.527.65-.227.343-.332.552-.468.945-.363 1.05-.344 1.724-.282 2.834.06 1.125.206 2.006.603 2.825.09.184.151.31.332.407.309.164.72-.082.873-.205 17.195-13.555 55.78-16.743 77.33-16.743h.583zM30.454 43.195v7.678c0 6.12-1.062 8.29-5.252 8.29h-9.498v-7.288h2.682c1.452 0 1.62-.612 1.62-4.062v-5.564c0-2.95-1.34-4.84-4.079-4.84-2.793 0-4.246 1.779-4.246 4.84v16.915H1.401v-15.97c0-9.626 5.867-13.187 14.526-13.187 8.828 0 14.527 3.45 14.527 13.188M47.39 38.02v11.017c0 7.289-.782 10.126-5.475 10.126h-9.498v-7.289h2.85c1.508 0 1.62-1.558 1.62-3.45v-7.623c0-2.559-.28-2.781-1.006-2.781H30.91v-7.29h13.073c2.29 0 3.408 1.447 3.408 7.29M60.857 30.73v22.925c0 3.283-1.676 5.508-5.643 5.508h-6.257v-7.288c1.006 0 1.452-.557 1.452-1.614V30.73h10.448" transform="translate(68 14) matrix(1 0 0 -1 .371 60.64)"/>
                    <path d="M91.479 47.2c0 9.905-2.403 11.963-7.877 11.963H62.54v-7.289h15.308c2.346 0 2.905-.612 2.905-5.841 0-5.565-2.29-8.013-5.53-8.013v-7.29h3.184c5.587 0 13.073 3.45 13.073 16.47M62.763 20.595h10.224v26.39H62.763v-26.39zM122.154 42.972v10.127c0 4.785-2.067 6.064-4.637 6.064H97.683c-2.737 0-4.693-1.39-4.693-6.064V42.972c0-10.07 7.487-12.965 14.694-12.965 7.542 0 14.47 2.671 14.47 12.965m-10.336-.724c0-3.116-1.396-4.84-4.134-4.84-2.738 0-4.358 1.78-4.358 4.84v6.677c0 2.337.223 2.95 1.676 2.95h5.195c1.453 0 1.621-.613 1.621-2.95v-6.677" transform="translate(68 14) matrix(1 0 0 -1 .371 60.64)"/>
                    <path fill-rule="nonzero" d="M135.568 42.75v10.905c0 3.283-1.116 5.509-5.084 5.509h-6.76v-7.289c1.118 0 1.397-.557 1.397-1.614v-7.512h10.447M162.847 51.875v7.289h-25.812v-7.29h14.08c-1.565-1-3.521-3.56-3.521-7.678V30.73h10.393v15.58c0 2.893.558 4.84 1.676 5.564h3.184M79.998 10.973c21.549 0 60.135 3.188 77.328 16.743.154.123.565.369.873.205.182-.096.244-.223.334-.407.397-.819.542-1.7.603-2.825.06-1.11.08-1.784-.283-2.834-.136-.393-.241-.602-.468-.946-.18-.271-.403-.534-.527-.649-.449-.41-1.703-1.344-1.814-1.426C137.138 4.827 103.12.579 80.02.579h-.626C56.292.58 22.274 4.827 3.37 18.834c-.112.082-1.366 1.016-1.815 1.426-.125.115-.347.378-.527.65-.227.343-.332.552-.468.945-.363 1.05-.344 1.724-.282 2.834.06 1.125.206 2.006.603 2.825.09.184.151.31.332.407.309.164.72-.082.873-.205 17.195-13.555 55.78-16.743 77.33-16.743h.583z" transform="translate(68 14) matrix(1 0 0 -1 .371 60.64)"/>
                </g>
            </g>
        </g>
    </g>
</svg>
