<svg xmlns="http://www.w3.org/2000/svg" xmlns:xlink="http://www.w3.org/1999/xlink" width="300" height="90" viewBox="0 0 300 90">
    <defs>
        <path id="dffypl8mda" d="M0 256.648L362.972 256.648 362.972 0 0 0z"/>
    </defs>
    <g fill="none" fill-rule="evenodd">
        <g>
            <g transform="translate(-32 -85) matrix(1 0 0 -1 .3 257.772)">
                <mask id="bqu008zkzb" fill="#fff">
                    <use xlink:href="#dffypl8mda"/>
                </mask>
                <g mask="url(#bqu008zkzb)">
                    <g>
                        <g>
                            <path fill="#FFF" fill-rule="nonzero" d="M223.114.808v17.067c0 4.905 3.346 8.203 8.227 8.203 4.197 0 6.056-1.96 6.056-6.55V.808h2.38v18.98c0 5.751-2.75 8.546-8.45 8.546-3.76 0-6.65-1.777-8.408-5.144l-.29-.552-.147.603c-.858 3.285-3.467 5.093-7.37 5.093-1.201 0-2.31-.194-3.316-.562-4.122-1.373-5.343-4.482-5.343-4.482v4.04h-2.717V.807h2.717V17.67c0 4.947 3.275 8.408 8.111 8.408 3.94 0 5.831-2.31 5.831-6.86V.808h2.72zm-56.608 25.415c4.964 0 8.208-3.81 8.47-9.725l-17.193.002c.31 5.824 3.737 9.723 8.723 9.723m8.173-17.252c-.708-3.74-4.019-6.06-8.22-6.06-5.487 0-9.094 4.395-9.094 10.988v.172h20.063v1.02c0 8.479-3.976 13.304-10.997 13.304-7.168 0-11.396-5.228-11.396-13.936 0-8.597 4.262-13.794 11.401-13.794 5.867 0 10.095 3.206 10.855 8.306h-2.612zm-27.58 7.151c0 6.357 2.863 9.508 8.306 9.508h.193v2.382h-.141c-2.76 0-4.873-.715-6.436-2.31-1.1-.952-1.86-2.26-2.263-3.074v4.701h-2.379V.81h2.72v15.313zM39.395 5.421c-4.85 0-7.565 3.341-7.565 9.604 0 6.259 2.714 9.648 7.565 9.648 4.801 0 7.51-3.338 7.51-9.648 0-6.263-2.709-9.604-7.51-9.604m-.051 24.263c-8.4 0-13.461-5.425-13.461-14.659 0-9.237 5.114-14.612 13.512-14.612 8.348 0 13.466 5.427 13.466 14.612 0 9.18-5.118 14.659-13.517 14.659M183.62 12.087c.27.25.584.486.923.705.414.237 2.677 1.424 6.39 1.675 2.761.195 4.944.47 6.592 1.108l.323.122.037-2.685-.009-.005.01-.08.007-.706.013-.604c-.005-.02-.005-.038-.005-.054-.002-.111-.01-.212-.016-.318-.039-.675-.162-1.626-.506-2.638-.81-2.208-2.721-4.576-7.094-5.336-.646-.094-1.325-.145-2.035-.145-3.8 0-6.257 2.073-6.257 5.281 0 .854.19 1.627.565 2.326.033.06.064.121.098.174.026.043.056.085.082.13.182.282.392.546.616.788l.103.105c.052.053.108.104.163.157m-4.333-3.735c0-4.606 3.267-7.471 8.527-7.471 3.738 0 7.026 1.495 9.673 4.446l.467.469V4.754c0-1.959.68-3.64 2.379-3.946v19.789c0 5.12-3.23 7.792-9.443 7.792-6.065 0-10.033-3.438-10.259-8.2h2.557c.292 3.742 2.84 5.958 7.79 5.958 4.881 0 6.875-1.721 6.875-6.018 0-2.332-.76-2.805-2.898-3.274-1.571-.336-3.853-.552-4.64-.62-.077-.004-.155-.01-.228-.019l-.054-.002v-.003c-2.381-.199-4.623-.483-6.616-1.39-2.703-1.252-4.13-3.486-4.13-6.469M68.066 5.527c-4.434 0-7.2 3.393-7.2 9.34 0 6.26 2.766 9.702 7.2 9.702 4.746 0 7.303-3.182 7.303-9.336 0-6.366-2.606-9.706-7.303-9.706m7.297 19.877c-2.04 2.872-4.901 4.28-8.606 4.28-6.729 0-11.76-5.635-11.76-14.765C54.997 6.05 59.914.413 66.795.413c3.603 0 6.187 1.412 8.568 4.491V.808h5.442v37.743h-5.442V25.404zm-60.198-7.667l-3.493.782c-2.978.678-4.594 1.511-4.594 3.495 0 1.67 1.565 2.836 4.643 2.836 3.6 0 5.636-1.6 5.79-4.319H23.2c0 5.441-4.282 9.011-11.27 9.011-6.782 0-10.745-3.374-10.745-8.488 0-4.487 2.817-6.433 8.557-7.841l4.12-1.023c2.711-.681 4.277-1.35 4.277-3.33 0-2.14-1.983-3.766-5.531-3.766-4.067 0-6.207 1.496-6.471 4.897H.4C.401 3.871 4.575.3 12.086.3c7.62 0 11.896 3.552 11.896 9.242 0 5.059-2.973 6.837-8.817 8.196m85.974-6.103c0-3.914-3.261-6.523-7.438-6.523-2.869 0-4.446 1.462-4.446 3.965 0 2.243 1.245 3.597 3.96 4.121 2.71.525 5.545.624 7.924 1.88v-3.443zm-5.165 18.05c-7.098 0-11.158-3.494-11.158-8.87v-.625h5.442v.367c0 2.76 1.89 4.327 5.489 4.327 3.81 0 5.615-1.198 5.615-3.859 0-2.558-1.263-2.609-6.112-3.238-7.357-.934-11.69-2.71-11.69-9.232 0-5.007 3.232-8.14 8.865-8.14 3.597 0 6.887 1.621 9.132 4.54.05-2.82 1.654-4.172 5.203-4.172.072 0 .158.006.158.006v20.756c0 5.375-3.643 8.14-10.944 8.14m45.003-26.319c-.678-.214-1.86-.447-2.65-.447-1.964 0-2.108 1.237-2.108 3.121v19.253h4.758v2.037h-4.758V37.53h-2.72V6.04c0-3.857.92-5.16 3.946-5.16 1.066 0 2.172.177 3.532.512v1.973zm-18.575 12.156c-.486.12-.951.222-1.4.33-4.661 1.09-7.476 1.74-7.476 5.498 0 2.88 2.435 4.719 6.209 4.719 4.268 0 6.866-2.137 7.166-5.88h2.704c-.449 5.104-4.013 8.122-9.82 8.122-5.363 0-8.967-2.957-8.967-7.401 0-4.388 2.913-5.842 9.435-7.42l.147-.053c4.667-1.114 7.24-1.763 7.24-5.21 0-3.224-2.905-5.373-7.39-5.373-4.015 0-7.097 2.718-7.28 6.118h-2.706c.265-5.1 4.22-8.355 10.14-8.355 5.944 0 9.941 3.062 9.941 7.528 0 3.959-2.082 5.94-7.943 7.377" transform="translate(57.8 108.324) translate(.14 .27)"/>
                        </g>
                        <g>
                            <path fill="#FFF" fill-rule="nonzero" d="M3.234 3.638c.55 0 1.093.019 1.093.637 0 .507-.424.626-.866.626h-.822V3.638h.595zM2.639 1.64h-.445v3.642h1.398c.82 0 1.182-.356 1.182-1.008 0-.645-.42-.932-.914-1.018l1.086-1.616H4.42L3.395 3.257h-.756V1.641zM.675 3.462C.675 1.953 1.811.76 3.335.76c1.525 0 2.66 1.194 2.66 2.703 0 1.507-1.135 2.7-2.66 2.7-1.524 0-2.66-1.193-2.66-2.7m5.813 0c0-1.772-1.372-3.15-3.153-3.15C1.555.311.182 1.69.182 3.461c0 1.77 1.373 3.151 3.153 3.151s3.153-1.38 3.153-3.15" transform="translate(57.8 108.324) translate(241.45 21.964)"/>
                        </g>
                    </g>
                </g>
            </g>
        </g>
    </g>
</svg>
