<svg xmlns="http://www.w3.org/2000/svg" xmlns:xlink="http://www.w3.org/1999/xlink" width="300" height="90" viewBox="0 0 300 90">
    <defs>
        <path id="sshbisu5aa" d="M0.05 0.026L20.799 0.026 20.799 37.769 0.049 37.769z"/>
        <path id="ul6wuq8r2c" d="M0.022 0.061L4.957 0.061 4.957 4.754 0.022 4.754z"/>
    </defs>
    <g fill="none" fill-rule="evenodd">
        <g>
            <path fill="#FFF" fill-rule="nonzero" d="M36.76 13.445c0-1.334-.353-1.757-1.47-1.818l-2.468-.182V6.539h9.935v4.542C44.108 8.053 47.225 5.63 51.1 5.63c1.943 0 3.705.362 5.646 1.33v9.028l-5.47.426v-2.788c0-.726-.115-1.272-.587-1.514-.529-.243-.94-.304-1.585-.304-3.176 0-5.35 2.606-5.35 6.122v14.054l5.114.239v4.788H33.116v-4.603l1.94-.185c1.115-.12 1.702-.484 1.702-1.999V13.446l.001-.001zm59.805 8.48c0-6.783-1.587-10.964-6.288-10.964-4.646 0-6.526 4.119-6.526 9.935 0 5.634.765 11.692 6.41 11.692 4.583 0 6.406-4.362 6.406-10.662M90.63 5.628c4.348 0 13.107 1.395 13.107 15.329 0 11.63-6.29 16.962-14.05 16.962-7.875 0-13.047-5.21-13.047-16.176 0-12.6 7.933-16.113 13.99-16.113m19.696 7.815c0-1.334-.352-1.757-1.468-1.818l-2.469-.182V6.539h9.934v4.542c1.351-3.028 4.465-5.451 8.347-5.451 1.937 0 3.704.362 5.641 1.33v9.028l-5.465.426v-2.788c0-.726-.118-1.272-.588-1.514-.53-.243-.94-.304-1.586-.304-3.175 0-5.35 2.606-5.35 6.122v14.054l5.113.239v4.788h-15.752v-4.603l1.94-.185c1.116-.12 1.703-.484 1.703-1.999V13.445zm84.506 17.812c-2.056 3.027-5.641 4.723-9.523 4.723-5.878 0-9.11-3.331-9.11-10.481V13.324c0-1.273-.468-1.635-1.47-1.696l-1.88-.121V6.539h10.342v17.387c0 3.694.59 6.48 4.353 6.48 4.116 0 6.29-2.845 6.29-5.997V13.446c0-1.334-.356-1.818-1.472-1.818l-1.879-.121V6.539h10.344v29.32c0 9.996-4.876 14.115-13.638 14.115-3.703 0-8.579-.725-11.047-2v-6.328l5.583-.484v.816c0 1.152.294 1.757 1.352 2.18 1.116.426 2.408.607 4.172.607 5.41 0 7.583-3.393 7.583-8.906v-4.604.002zm-50.352.725V6.541h-10.521v5.027l2.056.121c1.116 0 1.472.423 1.472 1.757l.031 23.568h10.313v-4.852l-3.351-.18zm-73.567 0V6.541H60.394v5.027l2.055.121c1.118 0 1.47.423 1.47 1.757l-.032 23.568h10.376v-4.852l-3.35-.18zM163.491 11.627L168.171 11.627 168.15 6.539 163.491 6.539z" transform="translate(43 20)"/>
            <g transform="translate(43 20) translate(149.793 .09)">
                <mask id="3l54ktblfb" fill="#fff">
                    <use xlink:href="#sshbisu5aa"/>
                </mask>
                <path fill="#FFF" fill-rule="nonzero" d="M19.034 30.982c-.94.607-2.411 1.273-3.996 1.273-2.413 0-3.823-1.089-3.823-4.785V.024h-3.82C6.16 3.481 4.75 6.751.637 7.116l-.588 4.42H4.22v16.176c0 4.24-.06 10.056 9.11 10.056 2.763 0 5.702-.848 7.467-2.12l-1.765-4.666h.002z" mask="url(#3l54ktblfb)"/>
            </g>
            <path fill="#FFF" fill-rule="nonzero" d="M15.87 32.164c-1.53 0-3.645-.484-5.174-1.515V16.716c0-2.786 2.587-5.21 5.938-5.21 3.115 0 5.938 2.06 5.938 10.117 0 5.27-1.707 10.54-6.702 10.54M19.22 5.63c-4.998 0-8.23 2.786-9.29 4.846V6.539H0v4.906l2.468.182c1.116 0 1.468.484 1.468 1.818l-.04 36.106h11.56v-4.786l-4.76-.243v-8.36c1.53.97 3.997 1.757 6.29 1.757 7.76 0 12.872-5.755 12.872-16.903 0-10.843-4.114-15.386-10.637-15.386m187.865 26.623v.717h-1.368v3.976h-.848V32.97h-1.375v-.716l3.59-.001z" transform="translate(43 20)"/>
            <g transform="translate(43 20) translate(207.604 32.192)">
                <mask id="n0aem0fe8d" fill="#fff">
                    <use xlink:href="#ul6wuq8r2c"/>
                </mask>
                <path fill="#FFF" fill-rule="nonzero" d="M2.405 3.022l.091.227c.03-.077.058-.157.091-.233.03-.073.064-.145.1-.216L4.037.203c.013-.03.03-.057.05-.081.017-.019.037-.033.06-.04.024-.01.05-.016.075-.017l.097-.003h.64v4.693h-.747V1.723c0-.057 0-.119.006-.184.002-.069.006-.136.013-.205L2.855 3.996c-.028.056-.07.104-.122.14-.052.035-.115.053-.179.05H2.44c-.062.002-.124-.016-.176-.05-.053-.037-.096-.085-.126-.141l-1.39-2.67c.014.132.02.265.021.398v3.031H.022V.061H.66l.096.003C.783.065.807.07.832.08c.024.009.045.024.06.043.024.023.043.05.056.079l1.36 2.605c.035.069.068.142.099.216" mask="url(#n0aem0fe8d)"/>
            </g>
        </g>
    </g>
</svg>
