<svg xmlns="http://www.w3.org/2000/svg" width="90" height="90" viewBox="0 0 90 90">
    <g fill="none" fill-rule="evenodd">
        <g>
            <path fill="#FFF" d="M82.575 66.214c3.783-6.684 5.71-13.873 5.784-21.567.092-7.676-1.873-15.076-5.894-22.2-4.187-7.051-9.623-12.46-16.306-16.224C59.475 2.441 52.295.513 44.619.44 36.925.347 29.507 2.312 22.364 6.334c-7.033 4.186-12.44 9.612-16.223 16.278C2.395 29.315.476 36.502.384 44.179.311 51.873 2.275 59.29 6.28 66.434c4.168 7.033 9.604 12.44 16.305 16.223 6.684 3.746 13.874 5.665 21.567 5.757 7.676.073 15.076-1.891 22.2-5.894 7.052-4.169 12.46-9.604 16.224-16.306z" transform="matrix(1 0 0 -1 .012 89.648)"/>
            <path fill="#000" d="M5.59 44.206v5.922h19.997c2.148-.092 3.81-.9 4.985-2.424 1.194-1.542 1.24-3.287.138-5.233l-3.911-6.032H18.37l3.25 5.178c1.212 1.634 1.947 2.497 2.204 2.59H5.59zm3.856-.881c1.23-.018 2.103-.459 2.617-1.322.514-.863.762-1.938.743-3.223v-7.134H5.59v11.679h3.856zm51.92.936v5.867h19.832c1.524-.036 2.58-.514 3.167-1.432.606-.937.918-2.047.937-3.333v-1.102H61.366zm16.168-.936h3.168V36.41H73.76v4.05c.037.807.432 1.477 1.184 2.01.734.55 1.598.836 2.59.854zm-44.07 11.238l7.988 1.625v-6.06h12.422c1.818-.128 3.13-.982 3.939-2.561.826-1.598.799-3.168-.083-4.71l-4.241-6.418H45.06l3.25 5.178 2.314 2.59H37.706c-2.736-.037-4.15 1.074-4.242 3.332v7.024z" transform="matrix(1 0 0 -1 .012 89.648)"/>
        </g>
    </g>
</svg>
