<svg xmlns="http://www.w3.org/2000/svg" width="300" height="90" viewBox="0 0 300 90">
    <g fill="none" fill-rule="evenodd">
        <g fill="#FFF" fill-rule="nonzero">
            <g>
                <path d="M129.114 27.478c.467 7.353 5.989 11.611 13.223 11.611 5.212 0 12.679-1.548 12.679-8.437 0-6.734-6.845-7.74-13.69-9.133-6.922-1.393-13.767-3.174-13.767-11.301 0-7.896 7.7-10.218 14.467-10.218 8.478 0 14.78 3.638 14.78 12.694h-2.957c-.078-7.198-5.134-10.14-11.823-10.14-5.445 0-11.512 2.013-11.512 7.663 0 6.348 6.845 7.354 13.302 8.747 7.933 1.47 14.156 3.328 14.156 11.688 0 8.592-8.634 10.992-15.635 10.992-9.1 0-15.946-4.877-16.179-14.165h2.956zM112.08 9.753h.234c1.555-5.186 8.089-9.366 15.323-9.056v2.94c-3.111-.386-7.468.388-11.045 3.871-2.956 3.02-4.201 5.496-4.512 11.456v21.75h-2.956V.93h2.956v8.824zM102.748 40.53h-2.956v-7.71h-.156c-1.866 4.721-7.234 8.823-14.856 8.823-7.545 0-13.38-2.864-13.38-11.224 0-9.288 8.09-11.223 14.702-11.765 13.223-.928 13.768-1.78 13.768-8.282 0-1.78-2.023-7.818-11.123-7.818-7.156 0-11.901 3.715-12.29 10.604h-2.956C73.89 4.412 79.335 0 88.747 0c7 0 14 2.167 14 10.372V40.53zm-2.956-22.417c-2.334 2.631-8.713 2.322-14.468 3.096-7 .774-10.967 3.251-10.967 9.21 0 4.8 3.5 8.67 10.5 8.67 13.457 0 14.935-11.455 14.935-13.545v-7.431zM37.1 21.208c-.155 9.366 4.823 17.881 14.701 17.881 7.545 0 12.912-4.49 14.312-11.843h2.956C67.513 36.535 61.29 41.643 51.8 41.643c-11.667 0-17.812-9.133-17.656-20.125C33.989 10.604 39.745 0 51.8 0 64.324 0 69.925 9.83 69.38 21.208H37.1zm29.324-2.554C66.27 10.295 60.98 2.555 51.801 2.555c-8.867 0-14.079 8.205-14.7 16.1h29.323zM2.955 27.478c.467 7.354 5.99 11.611 13.224 11.611 5.211 0 12.679-1.548 12.679-8.437 0-6.734-6.845-7.74-13.69-9.133C8.245 20.125 1.4 18.345 1.4 10.217 1.4 2.322 9.1 0 15.868 0c8.478 0 14.779 3.638 14.779 12.694H27.69c-.078-7.198-5.134-10.14-11.823-10.14-5.445 0-11.512 2.013-11.512 7.663 0 6.348 6.845 7.354 13.301 8.747 7.934 1.47 14.156 3.328 14.156 11.688 0 8.592-8.634 10.991-15.635 10.991-9.1 0-15.945-4.876-16.179-14.165h2.956z" transform="translate(71 24)"/>
            </g>
        </g>
    </g>
</svg>
