<svg xmlns="http://www.w3.org/2000/svg" width="300" height="90" viewBox="0 0 300 90">
    <g fill="none" fill-rule="evenodd">
        <g fill="#FFF" fill-rule="nonzero">
            <g>
                <path fill-opacity=".5" d="M158.248 26.012c-1.664-1.664-1.664-4.362 0-6.026l18.74-18.738c1.664-1.664 4.36-1.664 6.024 0l18.74 18.738c1.664 1.664 1.664 4.362 0 6.026l-18.74 18.74c-1.664 1.664-4.36 1.664-6.024 0l-18.74-18.74z" transform="translate(36 22) matrix(1 0 0 -1 0 46)"/>
                <path d="M183.248 26.012c-1.664-1.664-1.664-4.362 0-6.026l18.74-18.738c1.664-1.664 4.36-1.664 6.024 0l18.74 18.738c1.664 1.664 1.664 4.362 0 6.026l-18.74 18.74c-1.664 1.664-4.36 1.664-6.024 0l-18.74-18.74z" transform="translate(36 22) matrix(1 0 0 -1 0 46)"/>
                <path d="M12.041 38v-4.41h4.438v-5.543c0-9.182-2.877-9.636-7.449-9.636H8.028L5.62 38H0l2.92-24h7.671c6.622 0 11.238 3.099 11.238 12.42V38H12.04zm13.2 0v-4.41h6.532c3.279 0 3.791-2.828 3.791-6.402V14h5.796v13.436C41.36 33.545 40.268 38 33.823 38h-8.582zm19.02 0v-4.41h6.667c3.188 0 4.615-1.516 4.615-6.243v-2.692c0-4.773-1.473-6.244-4.615-6.244H44.35V14h7.492c6.22 0 9.365 3.099 9.365 9.592v4.771c0 6.538-2.92 9.637-9.365 9.637h-7.58zm42.654-24l-6.422 9.5c3.702.589 6.043 3.055 6.043 7.737V38h-5.352v-7.33c0-2.351-.647-3.55-3.009-3.73L70.974 38h-5.888l5.24-7.87c-4.215-.748-5.418-4.322-5.418-8.122V14h5.396v9.365c0 2.398.335 3.19 2.161 3.755L80.828 14h6.087zm3.054 24v-4.41h6.532c3.279 0 3.792-2.828 3.792-6.402V14h5.797v13.436c0 6.109-1.094 10.564-7.536 10.564h-8.585zm40.716 0V25.356c0-6.175-3.524-6.945-8.363-6.945h-5.863L114.453 38h-5.375l2.207-24h13.133c7.447 0 11.527 4.118 11.527 12.42V38h-5.26zm8.473-13.48H145V38h-5.842V24.52z" transform="translate(36 22) matrix(1 0 0 -1 0 52)"/>
                <path d="M122.777 14c1.55.03 2.223 1.301 2.223 2.687V30h-5V14h2.777z" transform="translate(36 22) matrix(1 0 0 -1 0 44)"/>
            </g>
        </g>
    </g>
</svg>
