<svg xmlns="http://www.w3.org/2000/svg" width="300" height="90" viewBox="0 0 300 90">
    <g fill="none" fill-rule="evenodd">
        <g fill="#FFF" fill-rule="nonzero">
            <g>
                <path d="M204 17C204 7.883 188.11.492 168.507.492c-2.838 0-5.595.153-8.24.446 1.825-.139 3.699-.21 5.609-.21 19.13 0 34.64 7.214 34.64 16.112 0 8.899-15.51 16.111-34.64 16.111-5.045 0-9.836-.501-14.158-1.404 4.998 1.252 10.714 1.961 16.789 1.961C188.11 33.508 204 26.118 204 17" transform="translate(48 28)"/>
                <path d="M184.24 5.224c-5.244-1.87-11.806-2.982-18.926-2.982-17.19 0-31.124 6.482-31.124 14.476 0 7.997 12.873 14.478 31.124 14.478 4.254 0 8.306-.397 11.998-1.115-3.07.493-6.366.758-9.795.758-16.609 0-30.073-6.261-30.073-13.987 0-7.724 13.464-13.987 30.073-13.987 6.19 0 11.941.87 16.723 2.36" transform="translate(48 28)"/>
                <path d="M147.844 28.155L157.862 18.237 149.026 18.237 149.026 15.201 157.862 15.201 147.972 5.378 151.296 4.379 162.811 15.959 162.811 2.465 175.457 15.201 187.554 15.201 191.038 16.719 187.554 18.427 175.457 18.427 163.201 30.926 162.811 31.01 162.811 17.477 151.315 29.033zM81.767 18.303H72.15l4.766-9.327 4.852 9.327zm-2.232-14.1h-2.053l-13.64 25.468c.481-.036.962 0 1.53 0 .525 0 1.006-.036 1.618 0 1.224-3.425 2.798-6.108 4.328-9.314h11.106c1.748 3.315 3.323 6.289 4.59 9.314.744-.036 1.487 0 2.317 0 .743 0 2.49-.036 3.32 0L79.535 4.203zM0 29.671c.612-.037 1.268 0 1.924 0 .611 0 2.609-.037 3.309 0v-12.17h.276l3.498 3.425 5.159 5.575c.918 1.02 1.792 2.041 2.754 3.17.787-.037 1.662 0 2.492 0 .832 0 1.618-.037 2.536 0l-.831-.91-2.097-2.041-9.008-9.51c4.417-.655 9.487-2.173 9.487-6.399 0-3.68-3.497-6.061-10.23-6.061H0V29.67zM5.233 6.098c1.836-.073 3.423-.183 5.042.035 3.279.438 4.809 2.077 4.809 4.591 0 2.843-2.405 4.664-5.596 5.21-2.231.365-3.643.219-4.255.183V6.097zM40.516 18.303h-9.618l4.766-9.327 4.852 9.327zm-2.232-14.1h-2.053l-13.64 25.468c.48-.036.962 0 1.53 0 .525 0 1.006-.036 1.618 0 1.224-3.425 2.798-6.108 4.33-9.314h11.104c1.749 3.315 3.323 6.289 4.59 9.314.744-.036 1.487 0 2.317 0 .744 0 2.49-.036 3.32 0L38.285 4.203zM52.495 29.671c.611-.036 1.266 0 1.923 0 .611 0 2.609-.036 3.31 0V17.733h10.328v-2.126H57.727v-8.62h11.334V4.75H52.494V29.67zM99.258 6.986L101.239 6.986 110.593 6.986 110.593 4.75 94.024 4.75 94.024 29.561 110.855 29.561 110.855 27.326 99.258 27.326 99.258 17.734 104.649 17.734 109.586 17.734 109.586 15.607 104.649 15.607 99.258 15.607zM119.066 4.75c-.7.036-2.658 0-3.27 0-.655 0-1.312.036-1.925 0v24.812h17.485v-2.236h-12.29V4.75z" transform="translate(48 28)"/>
            </g>
        </g>
    </g>
</svg>
