<svg xmlns="http://www.w3.org/2000/svg" width="300" height="90" viewBox="0 0 300 90">
    <g fill="none" fill-rule="evenodd">
        <g fill="#FFF" fill-rule="nonzero">
            <g>
                <path d="M219.142 32.999c.197.01.391-.043.554-.154.22-.166.264-.452.264-.89v-.403c-.008-.276-.08-.546-.209-.789l-4.793-7.062c.73-.465 1.404-1.014 2.01-1.634.702-.734 1.284-1.576 1.722-2.495.467-.995.8-2.049.99-3.133.223-1.27.33-2.558.32-3.848V11h-4.475v2.776c0 .882-.03 1.701-.089 2.459-.047.679-.17 1.35-.369 2.001-.18.577-.454 1.12-.81 1.605-.303.4-.665.753-1.072 1.046L206.56 11H202v.986l11.469 16.75h-10.37V33h16.043zM15.06 42.632c-1.198-.232-2.355-.645-3.43-1.225-1.053-.575-1.98-1.356-2.73-2.296-1.483-2.02-2.51-4.343-3.008-6.805-.308-1.243-.56-2.512-.766-3.793l-.621-3.89-1.242-7.783C2.404 11.652 1.561 6.464.651 1.276.622 1.098.457.977.28 1.004c-.177.026-.3.19-.277.369.623 5.224 1.303 10.439 1.98 15.656l1.055 7.818.529 3.91c.182 1.318.398 2.641.7 3.954.534 2.715 1.654 5.279 3.28 7.51.884 1.12 1.979 2.054 3.221 2.748 1.226.675 2.546 1.161 3.915 1.441 2.636.484 5.317.671 7.994.558l7.839-.009 62.719-.069 62.718-.18 62.72-.34c.18 0 .327-.148.327-.33 0-.182-.147-.33-.328-.33l-62.719-.343-62.718-.183-62.72-.07-7.838-.01c-1.313-.01-2.614.018-3.876-.035-1.256-.045-2.507-.19-3.741-.433M199.27 10.003c.263-.633.46-1.285.591-1.95.132-.631.17-1.276.113-1.917L199.96 6h-4.143v.143c-.014.642-.066 1.304-.155 1.967-.088.663-.203 1.298-.348 1.894-.131.55-.302 1.09-.511 1.62-.15.403-.358.788-.62 1.145L194 13h3.22l.048-.038c.436-.36.806-.777 1.098-1.236.364-.55.67-1.127.914-1.726M172 11.164l4.443 10.39L172.819 33h4.538l4.461-13.992c.276-1.08.804-2.08 1.542-2.924.325-.314.715-.554 1.143-.704.501-.16 1.026-.236 1.552-.225h.304c.893-.047 1.766.274 2.41.885.69.873 1.013 1.974.9 3.075v9.695h-6.86V33h11.188V18.874c.028-1.176-.142-2.348-.504-3.469-.316-.913-.823-1.75-1.488-2.459-.673-.717-1.526-1.246-2.473-1.533-.979-.282-1.995-.42-3.014-.41h-.406c-1.862-.057-3.667.641-4.991 1.932-.483.505-.893 1.073-1.219 1.69-.34.642-.63 1.31-.87 1.995l-2.43-5.458-4.602.002z" transform="translate(35 23)"/>
                <path d="M157.595 18.729v-3.465h6.783c.37-.007.741.026 1.104.098.247.057.474.178.655.35.195.198.36.422.487.667.182.36.318.741.403 1.134.137.605.235 1.218.292 1.834.075.73.111 1.619.111 2.643 0 1.087-.023 2.012-.07 2.75-.033.613-.11 1.223-.23 1.826-.073.38-.196.749-.369 1.097-.118.224-.275.426-.465.597-.537.358-1.184.527-1.833.478H153V33h11.566c.44.002.88-.023 1.315-.075.396-.047.784-.136 1.159-.266.359-.125.702-.288 1.023-.487.34-.217.656-.469.94-.75 1.039-1.002 1.808-2.235 2.24-3.592.554-1.898.807-3.868.749-5.84.008-1.16-.048-2.32-.17-3.474-.092-.882-.264-1.754-.514-2.607-.202-.684-.494-1.34-.87-1.953-.334-.528-.73-1.017-1.181-1.456-.617-.58-1.38-.992-2.214-1.193-.896-.213-1.817-.316-2.74-.306h-11.138v8.51c-.005.602.03 1.205.108 1.803.058.507.238.993.525 1.419.294.409.713.718 1.198.885.59.192 1.212.28 1.835.26h4.724v-4.033h-3.459c-.14.016-.282-.027-.388-.119-.11-.32-.148-.658-.113-.993M146 11H150V24H146zM139 11H143V33H139zM131 11H135V38H131zM95 11.164l4.442 10.39L95.82 33h4.532l4.462-13.992c.276-1.08.804-2.08 1.542-2.924.325-.314.715-.554 1.143-.704.504-.16 1.031-.237 1.56-.225h.305c.893-.046 1.766.274 2.41.885.69.873 1.012 1.974.899 3.075v9.695h-6.859V33h11.184V18.874c.028-1.175-.141-2.347-.502-3.469-.316-.913-.824-1.75-1.488-2.459-.673-.717-1.527-1.246-2.474-1.533-.978-.282-1.994-.42-3.013-.41h-.406c-1.862-.057-3.666.641-4.99 1.932-.484.505-.894 1.073-1.22 1.69-.339.642-.63 1.31-.868 1.995l-2.43-5.458-4.606.002zM88 11H92V33H88zM72.184 15.391h6.891L77.8 26.17c0 1.063-.487 2.067-1.32 2.719-.938.517-1.998.766-3.066.717h-.76c-.518.009-1.034-.043-1.54-.153-.358-.076-.694-.232-.984-.457-.266-.226-.473-.515-.603-.84-.177-.469-.283-.962-.314-1.462L67.649 11H63l1.66 15.87c.091 1.214.385 2.402.869 3.517.392.875.993 1.638 1.75 2.22.743.545 1.595.92 2.496 1.1 1.01.203 2.037.3 3.067.292h.411c1.161.014 2.319-.133 3.44-.438 1-.277 1.933-.759 2.74-1.416.802-.677 1.45-1.52 1.901-2.471.516-1.107.848-2.292.982-3.507l1.594-12.86c.055-.317.085-.638.088-.96.016-.307-.071-.61-.248-.86-.25-.332-.652-.51-1.063-.474H72.184v4.378zM56 11H60V33H56zM48.759 18.89V33h4.233V19.09c.044-1.403-.097-2.807-.419-4.173-.221-.886-.648-1.706-1.244-2.391-.427-.491-.956-.88-1.55-1.135-.712-.279-1.471-.41-2.234-.389H38v4.26h9.66c.034.012.066.028.095.05.123.086.248.168.377.247.194.246.33.534.393.843.199.813.277 1.652.234 2.489M33.829 11.294c-.17-.202-.422-.31-.682-.292H13.824c-.3-.01-.577.168-.701.449-.083.171-.125.36-.123.552l1.579 14.908c.089 1.199.37 2.374.83 3.48.375.874.96 1.637 1.702 2.215.747.553 1.604.928 2.51 1.101 1.057.205 2.131.303 3.207.292h.871c1.065.008 2.125-.161 3.137-.503.963-.327 1.852-.849 2.615-1.534.786-.72 1.425-1.59 1.881-2.564.515-1.113.847-2.306.984-3.53l1.653-13.82c.07-.26.02-.539-.14-.754zM27.84 26.371c-.082.924-.463 1.792-1.082 2.468-.871.68-1.963.994-3.052.876h-1.113c-.984.119-1.975-.142-2.781-.73-.502-.561-.794-1.286-.826-2.046L17.881 15.3h11.234L27.84 26.371z" transform="translate(35 23)"/>
                <path d="M230 .944v-.02c0-.246-.097-.482-.269-.655-.172-.173-.404-.27-.646-.269h-.015L23.33.615c-.182 0-.329.15-.329.334 0 .184.147.333.329.333l204.829.608.585 31.778c0 .183.147.332.327.332.181 0 .327-.149.327-.332L230 .944z" transform="translate(35 23)"/>
            </g>
        </g>
    </g>
</svg>
