<svg xmlns="http://www.w3.org/2000/svg" width="90" height="90" viewBox="0 0 90 90">
    <g fill="none" fill-rule="evenodd">
        <g fill="#FFF" fill-rule="nonzero">
            <g>
                <g>
                    <path d="M0 24.732V0h90v49.463H0V24.732zm86.623 0V3.486h-83.3v42.491h83.3V24.732z" transform="translate(0 19) matrix(1 0 0 -1 0 50.768)"/>
                    <path d="M65.342 39.08c-1.152-.103-2.465-.37-3.473-.702-2.128-.698-3.758-1.711-5.344-3.323-1.834-1.863-3.018-3.993-3.678-6.597-.364-1.466-.444-2.168-.444-3.944-.006-1.613.037-2.054.289-3.307.445-2.179 1.49-4.374 2.884-6.063.547-.66 1.726-1.825 2.332-2.304 1.978-1.564 4.304-2.49 6.963-2.762.96-.104 3.055-.044 3.902.103 2.037.36 3.838 1.123 5.339 2.272 2.128 1.629 3.752 4.01 4.524 6.635.429 1.465.59 2.615.627 4.598l.032 1.427H67.915V21.136h3.43c2.708 0 3.431-.016 3.431-.065 0-.169-.326-1.362-.477-1.749-.6-1.53-1.64-2.903-2.873-3.791-.52-.37-1.554-.905-2.117-1.09-2.208-.724-4.814-.512-6.995.572-2.75 1.362-4.685 3.993-5.302 7.202-.39 2.037-.235 4.347.418 6.248 1.266 3.683 4.198 6.096 7.982 6.57.793.098 2.54.038 3.275-.115 2.434-.495 4.54-1.868 6.116-3.993l.311-.425.38.376c.21.202.874.85 1.48 1.433.606.583 1.104 1.073 1.115 1.09.032.076-.863 1.143-1.442 1.715-1.426 1.411-3.334 2.588-5.248 3.236-1.554.529-2.68.714-4.502.736-.724.005-1.42.005-1.555-.006zM23.891 38.176c-.07-.158-2.991-6.46-6.491-14-3.495-7.545-6.358-13.728-6.358-13.744 0-.016 1.03-.022 2.29-.016l2.283.016 1.506 3.388 1.506 3.389 5.843.005h5.848l1.453-3.388 1.452-3.394 2.284-.016c1.254-.006 2.284.005 2.284.021 0 .044.17-.343-8.711 19.77-1.228 2.788-2.541 5.752-2.906 6.59-.37.84-.696 1.559-.723 1.597-.043.043-.257.065-.74.065h-.691l-.129-.283zm2.67-12.11c1.077-2.478 1.95-4.521 1.94-4.532-.01-.011-1.823-.011-4.02-.006l-4 .017 2.043 4.538c1.12 2.494 2.048 4.526 2.058 4.516.011-.011.901-2.049 1.978-4.533zM42.507 24.269L42.507 10.459 44.598 10.459 46.688 10.459 46.688 24.269 46.688 38.078 44.598 38.078 42.507 38.078z" transform="translate(0 19) matrix(1 0 0 -1 0 50.768)"/>
                </g>
            </g>
        </g>
    </g>
</svg>
