<svg xmlns="http://www.w3.org/2000/svg" width="90" height="90" viewBox="0 0 90 90">
    <g fill="none" fill-rule="evenodd">
        <g fill-rule="nonzero">
            <g>
                <path fill="#FFF" d="M89.237.19H.202v89.672h89.035V60.268c.354-.513.528-1.17.528-1.972 0-.918-.174-1.487-.528-1.966"/>
                <path fill="#000" d="M8.227 38.992l-1.713-4.188-1.703 4.188m41.15-1.668c-.344.21-.75.217-1.238.217h-3.04v-2.334h3.081c.437 0 .892.02 1.187.19.325.153.526.478.526.928 0 .46-.191.83-.516 1zm21.688 1.668l-1.732-4.188-1.722 4.188h3.454zM27.22 43.526h-2.565l-.01-8.229-3.628 8.229H18.82l-3.638-8.236v8.236h-5.09l-.961-2.344H3.92l-.972 2.344H.23l4.481-10.507H8.43l4.257 9.948v-9.948h4.084l3.275 7.128 3.009-7.128h4.166v10.507zm10.225 0h-8.36V33.019h8.36v2.188H31.59v1.894h5.717v2.154h-5.717v2.098h5.857v2.173zm11.787-7.677c0 1.675-1.114 2.54-1.763 2.8.548.21 1.015.579 1.238.885.353.523.414.99.414 1.928v2.064h-2.524l-.01-1.325c0-.632.061-1.542-.394-2.047-.366-.37-.923-.45-1.824-.45h-2.687v3.822h-2.502V33.019h5.756c1.279 0 2.221.034 3.03.503.792.47 1.266 1.155 1.266 2.327zm4.005 7.677h-2.553V33.019h2.553v10.507zm29.624 0h-3.546l-4.744-7.886v7.886h-5.096l-.974-2.344h-5.199l-.945 2.344H59.43c-1.216 0-2.757-.27-3.629-1.162-.88-.892-1.337-2.1-1.337-4.011 0-1.559.274-2.983 1.35-4.109.808-.838 2.075-1.225 3.8-1.225h2.423v2.251h-2.372c-.914 0-1.43.137-1.926.623-.427.442-.72 1.279-.72 2.38 0 1.125.224 1.937.689 2.467.385.416 1.085.542 1.744.542h1.124l3.527-8.262h3.75l4.236 9.937V33.02h3.81l4.4 7.317V33.02h2.563v10.506zM.202 45.589h4.276l.964-2.333H7.6l.962 2.333h8.413v-1.784l.75 1.792h4.368l.75-1.818v1.81h20.909l-.01-3.83h.404c.284.01.366.036.366.505v3.325h10.814v-.891c.872.469 2.229.891 4.014.891h4.55l.973-2.333h2.158l.952 2.333h8.767v-2.216l1.328 2.216h7.025V30.936H78.14v1.73l-.973-1.73h-7.134v1.73l-.894-1.73h-9.637c-1.613 0-3.03.226-4.176.856v-.856h-6.65v.856c-.729-.65-1.722-.856-2.826-.856H21.555l-1.63 3.785-1.674-3.785H10.6v1.73l-.84-1.73H3.231l-3.03 6.967v7.686zM89.237 53.34h-4.56c-.456 0-.759.016-1.014.19-.264.17-.365.422-.365.755 0 .397.223.666.547.783.264.092.548.12.964.12l1.357.036c1.368.033 2.282.27 2.839.845.101.08.162.17.232.26m0 3.939c-.608.892-1.792 1.344-3.396 1.344h-4.833v-2.254h4.813c.478 0 .812-.063 1.013-.26.175-.162.296-.398.296-.685 0-.306-.121-.55-.306-.695-.181-.16-.445-.233-.881-.233-2.35-.08-5.282.073-5.282-3.253 0-1.524.965-3.129 3.591-3.129h4.985v-2.09h-4.632c-1.397 0-2.413.335-3.132.857v-.858h-6.85c-1.096 0-2.381.273-2.99.858v-.858H59.4v.858c-.973-.704-2.616-.858-3.374-.858h-8.07v.858c-.77-.748-2.482-.858-3.526-.858H35.4l-2.067 2.245-1.936-2.245h-13.49v14.664h13.236l2.13-2.28 2.005 2.28 8.16.007v-3.45h.801c1.083.018 2.36-.026 3.486-.515v3.958h6.73v-3.822h.324c.414 0 .455.017.455.432v3.39h20.443c1.298 0 2.655-.334 3.406-.939v.938h6.484c1.35 0 2.667-.19 3.67-.676v-2.731zm-9.982-4.199c.487.506.748 1.145.748 2.227 0 2.26-1.407 3.316-3.931 3.316h-4.874v-2.254h4.854c.475 0 .811-.063 1.022-.26.173-.162.296-.398.296-.685 0-.306-.134-.55-.305-.695-.192-.16-.456-.233-.892-.233-2.34-.08-5.27.073-5.27-3.253 0-1.524.954-3.129 3.577-3.129h5.017v2.237h-4.59c-.456 0-.751.017-1.003.19-.274.17-.376.422-.376.756 0 .396.233.666.548.783.264.092.547.119.974.119l1.347.036c1.358.033 2.29.27 2.858.845zm-22.582-.649c-.335.2-.749.217-1.236.217h-3.04v-2.36h3.082c.445 0 .891.009 1.194.19.324.17.518.495.518.945 0 .45-.194.812-.518 1.008zm1.512 1.308c.557.207 1.012.576 1.225.882.354.514.405.992.415 1.919v2.083h-2.512v-1.315c0-.632.06-1.568-.405-2.057-.366-.376-.923-.466-1.836-.466h-2.674v3.838h-2.515v-10.51h5.778c1.267 0 2.19.057 3.01.497.79.479 1.287 1.135 1.287 2.334 0 1.677-1.115 2.533-1.773 2.795zm3.16-5.625h8.353v2.173h-5.86v1.91h5.717v2.145h-5.717v2.09l5.86.01v2.181h-8.352v-10.51zm-16.883 4.85h-3.234v-2.676h3.263c.903 0 1.53.369 1.53 1.288 0 .909-.598 1.388-1.56 1.388zm-5.727 4.703l-3.842-4.28 3.842-4.145v8.425zm-9.922-1.234H22.66V57.33h5.494v-2.144H22.66v-1.91h6.274l2.737 3.062-2.858 3.083zm19.895-4.857c0 2.92-2.17 3.522-4.358 3.522h-3.122v3.525h-4.865l-3.081-3.479-3.202 3.479h-9.913v-10.51h10.065l3.08 3.446 3.182-3.445h7.997c1.986 0 4.217.552 4.217 3.462z"/>
            </g>
        </g>
    </g>
</svg>
