<svg xmlns="http://www.w3.org/2000/svg" width="300" height="90" viewBox="0 0 300 90">
    <g fill="none" fill-rule="evenodd">
        <g fill="#FFF">
            <path d="M0 0v39h26.701v-7.612H7.253V0H0zm72.582 29.481c-.411.67-.93 1.225-1.559 1.666-.633.443-1.334.768-2.106.98-.716.204-1.456.311-2.2.318H53.43v-8.414c1.032-.575 2.15-.973 3.31-1.177 1.134-.195 2.27-.292 3.405-.292h6.053c.85 0 1.694.081 2.529.244.79.146 1.55.428 2.248.834.662.393 2.221 1.477 2.221 3.465 0 .916-.204 1.707-.614 2.376zM53.43 6.555h12.765c1.544 0 2.805.347 3.783 1.04.977.693 1.465 1.548 1.465 3.295 0 1.716-.475 2.744-1.42 3.586-.945.84-2.223 1.26-3.83 1.26h-6.051c-1.168 0-2.31.08-3.429.245-1.163.18-2.28.593-3.285 1.218V6.555h.002zM79.646 24.7c-.273-1.002-.665-1.966-1.168-2.87-.443-.794-1.01-1.51-1.68-2.116-.58-.53-1.23-.978-1.93-1.33 1.108-.733 1.947-1.78 2.517-3.142.571-1.362.856-2.88.856-4.556 0-1.71-.276-3.231-.83-4.557-.52-1.277-1.312-2.422-2.316-3.351-1.024-.93-2.223-1.635-3.525-2.073-1.42-.48-2.91-.719-4.406-.705H46.282v39h20.912c1.547 0 3.094-.19 4.64-.573 1.485-.355 2.895-.982 4.16-1.852 1.225-.851 2.242-1.976 2.975-3.29.757-1.34 1.136-2.983 1.136-4.933 0-1.358-.153-2.574-.459-3.653v.001zM32.932 39h7.12V0h-7.12v39zm88.083-7.647c-3.585.055-6.792-1.421-9.972-3.549 1.025-.635 1.994-1.407 2.9-2.346 2.793-2.902 4.19-6.419 4.19-10.551 0-4.097-1.397-7.605-4.19-10.526C111.151 1.459 107.78 0 103.831 0H85.445v7.466h18.387c1.973 0 3.656.731 5.047 2.192 1.393 1.458 2.09 3.21 2.09 5.249 0 2.057-.697 3.814-2.09 5.275-1.375 1.444-3.038 2.166-4.985 2.184-1.095-.871-2.208-1.72-3.338-2.544-5.32-3.85-10.27-4.247-12.541-4.184v7.735c6.828.616 12.62 6.754 19.156 11.476 6.95 5.022 13.876 4.082 13.876 4.082l-.032-7.578zM170 39L150.079 0h-6.59l-18.882 39h7.82l14.496-29.2L162.18 39H170z" transform="translate(65 26)"/>
        </g>
    </g>
</svg>
