<svg xmlns="http://www.w3.org/2000/svg" width="300" height="90" viewBox="0 0 300 90">
    <g fill="none" fill-rule="evenodd">
        <g fill="#FFF" fill-rule="nonzero">
            <path d="M221.993 56.878c-.19-2.445-1.516-3.047-1.516-3.047s-.683.489-1.82.64c-1.895.225-3.222-.226-4.7-1.806-2.123-2.257-.038-8.99-2.844-9.854.91-1.43.948-4.702-1.1-5.228-2.046-.527-4.434 1.956-5.61 2.896-3.79 3.046-6.747 7.146-8.795 11.471-.265.565-.492 1.166-.644 1.806-.644-.301-1.175-.715-1.668-1.241-1.1-1.166-1.668-4.326-.948-7.184l.114-.452v-.15c.152-.527.303-1.053.493-1.58 3.64-10.117 8.037-24.109 8.226-24.824.417-1.542-.265-3.197-1.554-3.686l-.569-.112c-1.1-.076-2.16.714-2.54 2.03-.076.151-4.36 13.729-7.013 21.402-.303-.452-.796-.715-1.327-.715-.72 0-1.023.075-1.857.564-5.156 2.746-10.084 9.441-12.738 15.61l-.227.563c-1.1-.188-2.123-.752-2.843-1.58-2.161-2.256 0-8.688-2.844-9.59.91-1.43.948-4.702-1.099-5.228-2.047-.527-4.435 1.956-5.61 2.896l-.342.3-.151.151c-1.896 1.655-3.602 3.536-5.08 5.567v.075l-.645.94-.113.188-.228.339-.417.677c-1.25.602-2.388 1.655-3.563 2.37-1.706 1.09-3.526 2.03-5.383 2.82-.834.339-4.853 2.031-4.929-.451-.037-.602.114-1.241.38-1.805 1.175-3.122 3.715-5.266 5.875-6.583.57-.376 1.138-.677 1.63-.902.493-.264 1.327-.527 2.01-.865 1.706-.903 1.895-3.01 1.25-4.589-1.06-2.708-3.79-.752-5.42.3-4.057 2.709-7.355 6.433-9.819 10.57-.644 1.09-1.137 2.219-1.516 3.423-.341-.226-.645-.49-.91-.79-.455-.527-.758-1.204-.872-1.918v-.301c-.265-1.693-.114-3.8-.455-5.304-.113-.489-.265-.94-.493-1.278-.227-.339-.53-.602-.947-.715.113-.188.227-.414.303-.602l.114-.338c.455-1.58.151-3.837-1.517-4.288-1.668-.414-4.51 1.956-5.686 2.896l-1.175 1.015c.796-1.24.455-2.896-.796-3.685-.455-.301-.948-.452-1.479-.414h-.417c-1.402.263-2.805.64-4.17 1.09l-1.213.414-.417.15c3.298-9.515 6.748-20.498 6.9-21.137.417-1.542-.266-3.197-1.555-3.686l-.568-.113h-.228c-1.023.038-1.971.827-2.312 2.069-.038.112-4.777 14.443-8.947 25.388-1.895.865-4.17 1.956-5.61 2.708l-2.578 1.391-.303.188c-3.83 2.408-7.393 5.229-10.577 8.426-.986.977-1.895 1.955-2.767 2.933-1.896 2.144-3.526 4.476-4.929 6.958-1.175 1.994-1.82 4.288-1.895 6.583 0 1.692.644 3.31 1.858 4.513C82.07 76.361 83.7 77 85.407 77l.91-.075c2.312-.376 4.473-1.354 6.292-2.746 2.275-1.692 4.36-3.648 6.217-5.792.872-.978 1.744-2.031 2.578-3.084 2.616-3.423 4.853-7.071 6.71-10.983.417-.903 1.29-2.82 2.123-4.74.834-1.917 1.706-3.76 2.047-4.588 5.914-2.445 8.302-2.332 8.681-2.445l.72-.112c-2.122 2.181-3.98 4.626-5.458 7.296-.569 1.016-1.175 2.107-1.517 3.197-.758 2.746-.151 6.545 3.412 7.26 3.564.714 7.885-3.762 10.501-6.959.19.677.493 1.354.834 1.994.569 1.09 1.327 2.03 2.237 2.82.91.79 1.97 1.392 3.146 1.768.417.113.796.226 1.213.301.38.075.758.075 1.175.075.38 0 .759-.037 1.176-.075.037 0 .113 0 .151-.037 2.616.188 5.649-1.016 7.81-1.994 1.705-.79 3.335-1.692 4.928-2.708-.076.79.038 1.58.265 2.294.38 1.317 2.275 2.37 3.526 2.596 3.677.714 7.885-3.762 10.5-6.959.91 3.047 3.071 5.567 6.218 6.583.985.3 2.009.45 3.07.376 2.199.564 4.7-.301 6.52-1.467 1.858-1.166 4.474-3.423 6.71-5.868.834 3.235 2.995 5.943 6.255 7.034h.076c1.479.376 2.995.489 4.511.338 3.564.226 7.469-3.987 9.97-7.07.91 3.046 3.071 5.566 6.218 6.581 3.26 1.053 7.05.15 6.861-2.933zm-118.087-5.755l-.113.263-.076.226c-1.706 3.724-3.83 7.259-6.331 10.531l-.493.602-.152.226-.492.602-1.213 1.354c-1.63 1.88-3.488 3.573-5.46 5.077-1.137.903-2.463 1.505-3.904 1.806h-.152c-.644 0-1.175-.527-1.175-1.166v-.076c0-.263.038-.564.076-.827v-.301c.227-.978.607-1.956 1.1-2.82 2.046-3.8 5.875-8.35 10.538-12.262l.114-.076 1.023-.827.796-.602.19-.15c1.213-.94 2.502-1.806 3.829-2.596l.227-.15c1.024-.677 2.01-1.279 2.957-1.805-.53 1.278-.948 2.256-1.289 2.971zm24.982-6.582l-.075.113v.075c-.797 1.768-1.782 3.423-2.957 4.927l-.228.301-.076.075-.265.301-.569.64c-.758.865-1.63 1.654-2.577 2.37-.531.413-1.176.714-1.82.864h-.076c-.303 0-.569-.263-.569-.564 0-.15 0-.263.038-.376v-.15l.076-.301c.114-.339.266-.677.417-1.016.948-1.805 2.768-3.912 4.966-5.717h.076l.493-.414.379-.3.076-.076c.568-.414 1.175-.865 1.782-1.203l.113-.076 1.251-.752h.114c-.265.489-.455.94-.569 1.279zm36.81.226l-.076.112v.076c-.796 1.767-1.781 3.422-2.957 4.927l-.227.3-.076.076-.227.3-.569.64c-.758.865-1.63 1.655-2.578 2.37-.53.413-1.175.714-1.82.865h-.075c-.304 0-.531-.263-.531-.564 0-.113 0-.264.038-.376v-.15c.114-.452.265-.904.53-1.355.948-1.805 2.768-3.912 4.967-5.717h.076l.492-.376.38-.301.075-.075.986-.715.796-.526.114-.076 1.365-.827c-.342.602-.531 1.09-.683 1.392zm22.367-.301l-.076.113v.075c-.607 1.354-1.365 2.633-2.199 3.836l-.796 1.053-.19.376-.075.076-.228.3-.569.64c-.758.865-1.63 1.655-2.577 2.37-.531.413-1.176.714-1.82.827h-.076c-.303 0-.53-.226-.53-.564v-.113c0-.038 0-.188.037-.263v-.113c.114-.452.266-.903.531-1.317.303-.564.682-1.128 1.062-1.655 1.099-1.466 2.35-2.783 3.715-3.949l.113-.113h.076l.493-.376.38-.3.075-.076c.569-.414 1.175-.865 1.782-1.203l.113-.076 1.365-.827c-.227.489-.493.94-.606 1.279zm21.229.3l-.076.113v.076l-.455.94-.303.526c-.645 1.204-1.403 2.37-2.237 3.46l-.227.302-.076.075-.228.3-.606.678c-.758.865-1.63 1.655-2.578 2.37-.53.413-1.175.714-1.82.864h-.076c-.303 0-.53-.263-.53-.564 0-.15 0-.263.038-.376v-.15l.075-.376c.114-.339.266-.64.417-.94.872-1.618 2.389-3.499 4.284-5.154l.683-.564h.075l.493-.376.38-.3.075-.076c.569-.414 1.175-.827 1.782-1.204l.114-.075 1.364-.827c-.19.489-.455.978-.568 1.279z"/>
        </g>
    </g>
</svg>
