<svg xmlns="http://www.w3.org/2000/svg" width="90" height="90" viewBox="0 0 90 90">
    <g fill="none" fill-rule="evenodd">
        <g fill="#FFF" fill-rule="nonzero">
            <g>
                <path d="M9.182 85.035L9.182 77.907 3.694 77.907 3.694 74.293.101 74.293.101 81.342 5.592 81.342 5.592 84.005 2.108 89.56 6.345 89.56M20.453 81.403L20.453 77.905 10.1 77.905 10.1 81.403 15.164 81.403 15.164 89.556 18.757 89.556 18.757 81.403M28.473 89.558L28.473 80.296 26.206 77.907 21.528 77.907 21.528 81.362 24.879 81.362 24.879 83.247 21.123 86.313 21.123 89.888 22.265 89.888 24.991 87.014 25.047 87.014 25.248 89.558M41.959 89.558L41.959 80.296 39.695 77.907 29.874 77.907 29.874 81.342 31.478 81.342 30.021 89.558 33.853 89.558 35.051 81.342 38.369 81.342 38.369 86.102 36.177 86.102 36.177 89.558M0 71.241L3.459 66.509 38.498 66.509 41.961 71.241M9.136 53.206H18.984V57.938H9.136zM22.974 53.206H32.824V57.938H22.974zM32.822 51.29h-9.854c-.07-1.102-.934-1.969-1.988-1.969-1.055 0-1.918.867-1.99 1.969H9.136v-4.734H32.82M6.672 39.905L18.983 39.905 18.983 44.636 9.137 44.636M22.974 39.905L35.285 39.905 32.822 44.636 22.974 44.636M3.153 33.254h5.36v2.117h2.742v-2.117h4.654v2.117h2.743v-2.117h4.654v2.117h2.743v-2.117h4.655v2.117h2.743v-2.117h5.358l-2.462 4.732H22.974c0-1.168-.893-2.117-1.996-2.117-1.1 0-1.995.948-1.995 2.117H5.615M9.885 0L14.185 0 14.185 2.24 15.681 2.24 15.681 0 20.232 0 20.232 2.24 21.729 2.24 21.729 0 26.278 0 26.278 2.24 27.774 2.24 27.774 0 32.075 0 32.075 4.734 9.885 4.734M9.136 19.953L32.822 19.953 30.36 24.688 11.6 24.688M11.6 26.603H30.362000000000002V31.335H11.6zM12.877 13.3H29.084000000000003V18.033H12.877zM12.877 6.649H29.084000000000003V11.382H12.877zM35.534 64.59L4.929 64.59 8.39 59.856 33.569 59.856 37.031 64.59" transform="translate(24)"/>
            </g>
        </g>
    </g>
</svg>
