<svg xmlns="http://www.w3.org/2000/svg" width="90" height="90" viewBox="0 0 90 90">
    <g fill="none" fill-rule="evenodd">
        <g>
            <g fill-rule="nonzero">
                <path fill="#FFF" stroke="#1CA3DB" stroke-width=".5" d="M1.396 1.701H88.76V48.447H1.396z" transform="translate(0 20)"/>
                <g fill="#00A4E4">
                    <path d="M0 24.732V0h90v49.463H0V24.732zm86.623 0V3.486h-83.3v42.491h83.3V24.732z" transform="translate(0 20) matrix(1 0 0 -1 0 49.768)"/>
                    <path d="M65.342 39.08c-1.152-.103-2.465-.37-3.473-.702-2.128-.698-3.758-1.711-5.344-3.323-1.834-1.863-3.018-3.993-3.678-6.597-.364-1.466-.444-2.168-.444-3.944-.006-1.613.037-2.054.289-3.307.445-2.179 1.49-4.374 2.884-6.063.547-.66 1.726-1.825 2.332-2.304 1.978-1.564 4.304-2.49 6.963-2.762.96-.104 3.055-.044 3.902.103 2.037.36 3.838 1.123 5.339 2.272 2.128 1.629 3.752 4.01 4.524 6.635.429 1.465.59 2.615.627 4.598l.032 1.427H67.915V21.136h3.43c2.708 0 3.431-.016 3.431-.065 0-.169-.326-1.362-.477-1.749-.6-1.53-1.64-2.903-2.873-3.791-.52-.37-1.554-.905-2.117-1.09-2.208-.724-4.814-.512-6.995.572-2.75 1.362-4.685 3.993-5.302 7.202-.39 2.037-.235 4.347.418 6.248 1.266 3.683 4.198 6.096 7.982 6.57.793.098 2.54.038 3.275-.115 2.434-.495 4.54-1.868 6.116-3.993l.311-.425.38.376c.21.202.874.85 1.48 1.433.606.583 1.104 1.073 1.115 1.09.032.076-.863 1.143-1.442 1.715-1.426 1.411-3.334 2.588-5.248 3.236-1.554.529-2.68.714-4.502.736-.724.005-1.42.005-1.555-.006zM23.891 38.176c-.07-.158-2.991-6.46-6.491-14-3.495-7.545-6.358-13.728-6.358-13.744 0-.016 1.03-.022 2.29-.016l2.283.016 1.506 3.388 1.506 3.389 5.843.005h5.848l1.453-3.388 1.452-3.394 2.284-.016c1.254-.006 2.284.005 2.284.021 0 .044.17-.343-8.711 19.77-1.228 2.788-2.541 5.752-2.906 6.59-.37.84-.696 1.559-.723 1.597-.043.043-.257.065-.74.065h-.691l-.129-.283zm2.67-12.11c1.077-2.478 1.95-4.521 1.94-4.532-.01-.011-1.823-.011-4.02-.006l-4 .017 2.043 4.538c1.12 2.494 2.048 4.526 2.058 4.516.011-.011.901-2.049 1.978-4.533zM42.507 24.269L42.507 10.459 44.598 10.459 46.688 10.459 46.688 24.269 46.688 38.078 44.598 38.078 42.507 38.078z" transform="translate(0 20) matrix(1 0 0 -1 0 49.768)"/>
                </g>
            </g>
            <g>
                <path fill="#FFF" d="M0 0H89.946V89.955H0z"/>
                <g fill="#000" stroke="#000" stroke-width="1.218">
                    <path d="M0.219 6.3H2.331V23.407H0.219z" transform="translate(53.053 63.947)"/>
                    <path fill-rule="nonzero" d="M21.915 16.06c.188 0 .353-.099.495-.292.14-.194.21-.421.21-.68L22.63 4.04c0-1.074.272-1.994.817-2.757C24 .533 24.666.157 25.444.157h6.759v2.914h-6.759c-.187 0-.352.097-.492.29-.14.194-.211.422-.211.68l-.009 11.047c0 1.075-.277 1.994-.83 2.758-.545.751-1.206 1.126-1.986 1.126h-4.927c-.78 0-1.446-.375-2-1.126-.544-.764-.818-1.684-.818-2.758V10.23c0-1.074.274-1.987.818-2.738.554-.763 1.22-1.146 2-1.146h4.159l.003 2.913h-4.162c-.123 0-.272.104-.452.311-.167.194-.252.415-.252.66v4.857c0 .259.075.485.227.68.148.193.308.291.478.291h4.925z" transform="translate(53.053 63.947)"/>
                    <path d="M27.759 16.058c-.6-.389-1.038-.857-1.317-1.403-.276-.546-.415-1.209-.415-1.987 0-.741.149-1.397.45-1.97.301-.57.728-1.032 1.282-1.383l4.646-3.027v3.377l-4.388 3.003 4.388 3.03v3.366l-4.646-3.006z" transform="translate(53.053 63.947)"/>
                    <path fill-rule="nonzero" d="M3.958 9.214V6.3h5.949c.779 0 1.441.382 1.985 1.146.55.749.83 1.656.831 2.725-.002.944-.213 1.76-.631 2.456.418.687.63 1.496.631 2.427l-.002 3.87h-2.116l.006-3.856c-.003-.267-.079-.49-.226-.681-.15-.194-.31-.29-.479-.29l-3.03-.008v-2.923l2.96.007c.185 0 .423-.127.564-.321.137-.191.208-.414.21-.666-.002-.268-.078-.49-.226-.68-.15-.195-.309-.292-.478-.292H3.958h0z" transform="translate(53.053 63.947)"/>
                </g>
                <g fill="#000" stroke="#000" stroke-width="1.218" opacity=".501">
                    <g>
                        <path d="M.232.604H2.3440000000000003V19.399H.232zM27.958 19.447V6.82h7.04c.78 0 1.442.383 1.986 1.146.553.751.83 1.665.83 2.738v8.742h-2.111v-8.742c0-.258-.076-.485-.226-.679-.15-.195-.31-.292-.479-.292h-4.927v9.713h-2.113 0zM22.8 16.533s.046 2.913 0 2.913h-4.215c-.778 0-1.445-.375-1.998-1.126-.545-.764-.817-1.684-.817-2.759v-4.857c0-1.073.272-1.986.817-2.738.553-.763 1.22-1.145 1.998-1.145h4.928c.78 0 1.44.382 1.986 1.145.554.752.831 1.665.831 2.738l-.002 8.713h-2.115c.004-.031.004-8.713.004-8.713 0-.258-.075-.484-.225-.678-.15-.195-.31-.292-.48-.292h-4.927c-.12 0-.27.103-.45.31-.17.195-.254.415-.254.66v4.857c0 .26.076.486.226.68.15.194.31.292.479.292h4.213z" transform="translate(2.842 63.474) translate(10.421)"/>
                        <path fill-rule="nonzero" d="M11.483 16.533c.188 0 .352-.098.493-.292.141-.194.212-.42.212-.68l.009-15.17h2.112L14.3 15.56c0 1.075-.277 1.995-.83 2.759-.547.751-1.207 1.126-1.987 1.126h-4.93c-.777 0-1.444-.375-1.998-1.126-.545-.764-.817-1.684-.817-2.759v-4.857c0-1.073.272-1.986.817-2.738.554-.763 1.22-1.145 1.999-1.145l4.297-.014-.044 2.964-4.254-.037c-.121 0-.272.104-.45.311-.168.194-.254.415-.254.66v4.857c0 .26.077.485.227.68.15.193.31.291.477.291h4.93z" transform="translate(2.842 63.474) translate(10.421)"/>
                    </g>
                    <path fill-rule="nonzero" d="M9.076 9.702H3.127c-.167 0-.327.098-.478.29-.15.196-.225.422-.225.681 0 .28.07.506.212.7.14.194.297.395.486.395l3.116.004v2.9H3.127c-.168 0-.328.098-.478.293-.15.194-.225.42-.225.679 0 .28.07.506.211.7.14.194.305.292.491.292h5.95v2.913H3.126c-.778 0-1.44-.375-1.984-1.126-.554-.764-.83-1.683-.83-2.759 0-.969.215-1.791.647-2.487-.432-.707-.647-1.535-.647-2.483 0-1.095.276-2.008.83-2.759.544-.764 1.206-1.147 1.984-1.147h5.95v2.914z" transform="translate(2.842 63.474)"/>
                </g>
            </g>
        </g>
    </g>
</svg>
